<svg xmlns="http://www.w3.org/2000/svg" viewBox="0 0 226.6 74.4"><defs><style>.a{fill:none;}.b{fill:#ff7a00;}</style></defs><path class="a" d="M135,12.6H115.9V32.7H135c4.9,0,8.9-4.2,8.9-10S139.9,12.6,135,12.6Z"/><polygon class="b" points="83.4 0 69.7 0 69.7 74.4 83.4 74.4 83.4 0"/><path class="b" d="M226.6.1H163.7V12.7h24.6V74.4H202V12.7h24.6Z"/><path class="b" d="M135.9,0H102.3V74.4h13.6V45.3h20c12,0,21.3-10.6,21.3-22.6S147.9.1,135.9,0ZM135,32.7H115.9V12.6H135c4.9,0,8.9,5.2,8.9,10.1S139.9,32.7,135,32.7Z"/><path class="b" d="M21.4,43H32.9a9.4,9.4,0,0,1,0,18.8H2.8V74.4H33.6a21.7,21.7,0,0,0,21.6-22A21.4,21.4,0,0,0,33.6,30.8H22.2a9.2,9.2,0,0,1-8.9-9.2,9,9,0,0,1,8.9-9H51.3V0H21.4A21.3,21.3,0,0,0,0,21.6,21.2,21.2,0,0,0,21.4,43Z"/></svg>