<svg xmlns="http://www.w3.org/2000/svg" viewBox="0 0 400 345"><defs><style>.a{fill:#fff;}.b{fill:#ff7a00;}</style></defs><polygon class="a" points="0 81.3 314.2 345 317.3 345 0 78.7 0 81.3"/><polygon class="a" points="0 185.8 189.8 345 192.9 345 0 183.2 0 185.8"/><polygon class="a" points="0 60.4 339.1 345 342.2 345 0 57.8 0 60.4"/><polygon class="a" points="0 123.1 264.4 345 267.6 345 0 120.5 0 123.1"/><polygon class="a" points="0 164.9 214.7 345 217.8 345 0 162.3 0 164.9"/><polygon class="a" points="0 144 239.5 345 242.7 345 0 141.4 0 144"/><polygon class="a" points="0 206.7 164.9 345 168 345 0 204 0 206.7"/><polygon class="a" points="0 102.2 289.3 345 292.4 345 0 99.6 0 102.2"/><polygon class="a" points="0 18.7 388.9 345 392 345 0 16.1 0 18.7"/><polygon class="a" points="0 227.5 140 345 143.1 345 0 224.9 0 227.5"/><polygon class="a" points="0 39.6 364 345 367.1 345 0 37 0 39.6"/><polygon class="b" points="0 162.3 217.8 345 239.5 345 0 144 0 162.3"/><polygon class="b" points="0 141.4 242.7 345 264.4 345 0 123.1 0 141.4"/><polygon class="b" points="0 183.2 192.9 345 214.7 345 0 164.9 0 183.2"/><polygon class="b" points="0 204 168 345 189.8 345 0 185.8 0 204"/><polygon class="b" points="0 224.9 143.1 345 164.9 345 0 206.7 0 224.9"/><polygon class="b" points="0 120.5 267.6 345 289.3 345 0 102.2 0 120.5"/><polygon class="b" points="0 57.8 342.2 345 364 345 0 39.6 0 57.8"/><polygon class="b" points="0 0 0 16.1 392 345 400 345 400 0 0 0"/><polygon class="b" points="0 345 140 345 0 227.5 0 345"/><polygon class="b" points="0 37 367.1 345 388.9 345 0 18.7 0 37"/><polygon class="b" points="0 99.6 292.4 345 314.2 345 0 81.3 0 99.6"/><polygon class="b" points="0 78.7 317.3 345 339.1 345 0 60.4 0 78.7"/><path class="a" d="M65.4,145.3l-1.2-1.6-1.5-1.5L57,147.5l.6.8,1.1,1.3,1.5,1.2a5.5,5.5,0,0,0,1.7.5,4.4,4.4,0,0,0,1.6-.2,3.8,3.8,0,0,0,1.5-.9,3.3,3.3,0,0,0,1.1-1.6,2.9,2.9,0,0,0,0-1.6A4.1,4.1,0,0,0,65.4,145.3Z" transform="translate(0.1 0.5)"/><polygon class="a" points="109.9 159.8 109.8 159.7 108.9 162.1 106.2 167.8 111.8 168.4 110.2 162.2 109.9 159.8"/><path class="a" d="M54.8,73.1a3.3,3.3,0,0,0,3.2.1,4.6,4.6,0,0,0,2.2-2.5,10.4,10.4,0,0,1,.4-1c.1-.3.1-.5.2-.8l-7.7-3.3-.8,1.9a4.2,4.2,0,0,0-.1,3.3A4.6,4.6,0,0,0,54.8,73.1Z" transform="translate(0.1 0.5)"/><path class="a" d="M71.2,143.3a3.3,3.3,0,0,0,1.2-2.7,4.3,4.3,0,0,0-1.3-2.8L70,136.7l-.7-.7-5.5,5.2.9,1,.8.8c.4.3.6.6.9.7a4.4,4.4,0,0,0,2.5.6A4.3,4.3,0,0,0,71.2,143.3Z" transform="translate(0.1 0.5)"/><path class="a" d="M116.5,6A90.5,90.5,0,1,0,207,96.5,90.6,90.6,0,0,0,116.5,6Zm60,73.4,1.5-.2h2.7v.7l-3.8,2,.6,4.3,16.6-2.3c0-.5.1-1,.1-1.4a5.9,5.9,0,0,1,.2-1.3h.8l1.1,7.8-.8.2-.6-1.2-.4-1.3L178,88.7l.6,4.3,4.2.9v.7l-1.3.3-1.4.3-1.5.3-1.2.2-2.2-16.2Zm-11,17.1a49,49,0,1,1-49-49A49,49,0,0,1,165.5,96.5Zm-49.9,57.6a1.1,1.1,0,0,1-.6.9,1.4,1.4,0,0,1-1.1.2,1.6,1.6,0,0,1-1.1-.4,1.3,1.3,0,0,1-.4-1c.1-.5.2-.8.6-1a1.4,1.4,0,0,1,1.1-.2,1.8,1.8,0,0,1,1.1.4A1.4,1.4,0,0,1,115.6,154.1Zm-6.3-.6a1.1,1.1,0,0,1-.5.9,1.6,1.6,0,0,1-1.2.2,1.5,1.5,0,0,1-1.1-.4,1,1,0,0,1-.3-1,1.1,1.1,0,0,1,.5-1,1.6,1.6,0,0,1,1.2-.2,2.1,2.1,0,0,1,1.1.4A1.1,1.1,0,0,1,109.3,153.5ZM91.8,16.7a5.6,5.6,0,0,1,1-1.5,4.7,4.7,0,0,1,1.2-.9l.4.3a4.7,4.7,0,0,0-.5,1,5.1,5.1,0,0,0-.2,1.3,5.7,5.7,0,0,0,.1,1.8,14,14,0,0,0,.6,2.4l4.8,15.3h2.4l.3.8L95,39.3l-.2-.8.9-.7.9-.6-4.7-15a8.1,8.1,0,0,1-.5-3.2A5.3,5.3,0,0,1,91.8,16.7ZM73,28.6l.5.7-.8.9-.9.8,4.3,3.5L81.8,31l-1-5.4a10.3,10.3,0,0,1-2.5.7l-.4-.7,5.4-3.2.4.7a10.7,10.7,0,0,1-1.4,1.6l3.5,19.5-.7.5L69.4,32.5l-1.1.4H67.2l-.4-.7ZM54.2,45.5l.6.5a9.5,9.5,0,0,1-.9,2.1l6,5.1,5.8-6.7-6-5.1-.9.6-1,.5-.6-.5,4.6-5.4.7.5a14.7,14.7,0,0,1-1,2.2L74.1,50.2a8,8,0,0,1,2.1-1.3l.6.5-4.7,5.4-.6-.5a4.9,4.9,0,0,1,.4-1.1,9.3,9.3,0,0,1,.5-1l-5.6-4.8L61,54.1l5.6,4.8,1-.6.9-.5.6.5-4.6,5.4-.6-.5a2.1,2.1,0,0,1,.4-1.1,3.7,3.7,0,0,1,.5-1.1L52.2,50.1l-1,.8-1,.5-.6-.5Zm-13.6,24,1.2-.7,2.3-.5,2.2-.4,2.3-.2h2.3l1-2.4-6.6-2.9-.8,1.1-.8.9L43,64l2.9-6.9.7.4v1.2a5,5,0,0,0-.2,1.2l15.3,6.5a10.5,10.5,0,0,1,.8-1.1l.8-.8.7.3-1,2.3c-.3.7-.5,1.5-.8,2.3l-.9,2.5A11.6,11.6,0,0,1,60,74.1a5.5,5.5,0,0,1-1.8,1.6,4.6,4.6,0,0,1-2.1.5,4.9,4.9,0,0,1-2.5-.5,5.6,5.6,0,0,1-2.7-2.3,6.7,6.7,0,0,1-.6-3.5l-4.5.9-4.5,1-1.4,1.1-.6-.2Zm-2.8,9.3h.9a8.8,8.8,0,0,1,.3,2.4l16.6,2c.1-.4.3-.7.4-1.1l.6-1.1h.8L55.8,94.4l-2.3-.3-2.2-.5v-.8l3.2-.7.7-6.1-7.4-.9-.5,4.5L49.3,91v.7c-1.8-.1-3.7-.4-5.6-.7v-.7l2.2-.8.6-4.6L38.7,84l-.8,6.4,3.2,1.8v.6a9.6,9.6,0,0,1-2.4,0l-2.4-.2Zm-.1,35.9a6.4,6.4,0,0,1-2.2-.6,4.2,4.2,0,0,1-1.4-1.2,2.8,2.8,0,0,1-.8-1.2l.3-.4a3.3,3.3,0,0,0,1,.6,2.5,2.5,0,0,0,1.3.3h1.7l2.5-.4,15.6-3.6a4.9,4.9,0,0,1,.1-1.2,4.9,4.9,0,0,1,.1-1.2l.8-.2,1.6,7-.8.2-.6-.9-.6-1L41,114.4A10.1,10.1,0,0,1,37.7,114.7Zm13,21.1a5.2,5.2,0,0,1-2.5-.3,5.3,5.3,0,0,1-2-1.3,7.9,7.9,0,0,1-1.6-2.3,7.6,7.6,0,0,1-1-5.5,6.3,6.3,0,0,1,3.6-3.8l10.7-5.3a6.1,6.1,0,0,1-.4-2.4l.7-.4,3.2,6.4-.7.4-.9-.8-.7-.8-10.3,5.1a7,7,0,0,0-2.1,1.4,4.4,4.4,0,0,0-1,1.5,3.7,3.7,0,0,0-.1,1.8,9.6,9.6,0,0,0,.7,2,4.5,4.5,0,0,0,2.6,2.5,5.6,5.6,0,0,0,4.2-.6l10-5a6.2,6.2,0,0,1-.1-1.3V126l.7-.4,2.7,5.4-.8.3-1-.7-.8-.8-10.1,5A10.5,10.5,0,0,1,50.7,135.8Zm17.5,14.6a6.6,6.6,0,0,1-1.2,1.7,5.7,5.7,0,0,1-2.4,1.3,5.3,5.3,0,0,1-2.5,0,11.2,11.2,0,0,1-2.5-1.1,19,19,0,0,1-2.1-1.9L56,148.8a14.3,14.3,0,0,0-1.5-1.8l-1.9-2,.6-.6a7.4,7.4,0,0,1,2.1,1.3l12.2-11.4-.6-1.1-.5-1.1.6-.6,2,2.2.8.7.7.8.8.8a4.7,4.7,0,0,1,1,1,8.6,8.6,0,0,1,1.4,1.8,5.4,5.4,0,0,1,1,2,3.7,3.7,0,0,1,0,2.1,4.1,4.1,0,0,1-1.3,2,6,6,0,0,1-1.3.9l-1.4.4H69.1a6.1,6.1,0,0,1-1.7-.7h-.1a4.8,4.8,0,0,1,.8,1.6,4.7,4.7,0,0,1,.4,1.7A5.1,5.1,0,0,1,68.2,150.4Zm6.6,14.1-6-4,.5-.7a6.3,6.3,0,0,1,2.2.7l9.3-13.9-.8-.8a6.1,6.1,0,0,0-.7-1l.5-.7,6,4-.5.7-1.1-.2-1.1-.4L73.7,162l.9.9.6.9Zm20.4,4.3a8.8,8.8,0,0,1-.5,1.5,8.8,8.8,0,0,0-.5,1.5l-.6,1.3-13.1-5.2.3-.8h1.3l1.1.2,6.1-15.5-1-.8-.9-.8.3-.7,7.2,2.8-.3.8H93.2l-1.4-.2-6.1,15.5,6,2.4,3.2-3.6.7.2C95.5,167.8,95.3,168.3,95.2,168.8Zm23.1,7.8-7.2-.7v-.8l1.1-.3h1.2l-1.4-5.3-6.6-.7-2.4,5,2.4.9v.8l-6.2-.6V174l2-.5,8.9-17.8h.8l5.3,19.1,1.1.4,1,.5Zm20.5-7.1a7.5,7.5,0,0,1-.9,2.4,5.9,5.9,0,0,1-1.8,1.7,8.8,8.8,0,0,1-2.6.9c-2.3.5-4.1.4-5.5-.4s-2.4-2.3-2.9-4.4L122.7,158a9.7,9.7,0,0,1-2.4-.2l-.2-.8,7-1.5v.8l-.9.6-1,.5,2.4,11.3a6.9,6.9,0,0,0,.8,2.3,3.5,3.5,0,0,0,1.3,1.4,2.8,2.8,0,0,0,1.6.5,7.4,7.4,0,0,0,2.1-.1,4.7,4.7,0,0,0,3.1-2c.7-.9.8-2.3.4-4.1l-2.3-11-1.3-.2-1.1-.3v-.8l5.8-1.2.2.8-.9.8-1.1.6,2.4,11A11.5,11.5,0,0,1,138.8,169.5Zm23.5-7.7-.4-.7.8-.9.8-.8-6.7-10.8-1.6-2.9-.2.2.8,3,2.7,15.3-.6.4-12.3-9.4L143,153h-.2l1.9,3,6.7,10.8,1-.4,1.1-.2.5.7-5,3.1-.5-.7.8-.9.8-.9-8.8-14.1-1.1.3-1.2.3-.4-.7,4.9-3.1,10.9,8.4,2.3,2h.1l-.8-3-2.4-13.5,4.3-2.7.4.7-.7.9-.7.9,8.7,14.2,1.1-.4,1.1-.2.4.7Zm22.6-24.2a7.6,7.6,0,0,1-1.2,2.6,13.2,13.2,0,0,1-2.1,2.5,9.2,9.2,0,0,1-1.8,1.2l-.9-.7-1.1-.9-1.1-1-.8-.8.4-.6,4.1,1.3.9-.4a5,5,0,0,0,1.1-1.3,5.1,5.1,0,0,0,.7-1.5,3.9,3.9,0,0,0,.2-1.5,3.4,3.4,0,0,0-.5-1.4,2.9,2.9,0,0,0-1.1-1.1,2.6,2.6,0,0,0-1.9-.5l-2.1.7-2.2,1.3a8,8,0,0,1-4.8,1.6,4.8,4.8,0,0,1-2.6-.9,4.6,4.6,0,0,1-1.6-1.5,4.4,4.4,0,0,1-.7-1.9,8.2,8.2,0,0,1,.2-2.1,8.4,8.4,0,0,1,1-2.2,16.8,16.8,0,0,1,1.9-2.4,11.5,11.5,0,0,1,1.8-1.6l.9.7,1,.8,1,.9.8.8-.4.6-3.8-1.1a2.8,2.8,0,0,0-1,.9,6.4,6.4,0,0,0-1,1.3,3.6,3.6,0,0,0-.6,2.4,3,3,0,0,0,3.4,2.4,5.8,5.8,0,0,0,2.1-.7,11.9,11.9,0,0,0,2.2-1.2l2.4-1.2a6.7,6.7,0,0,1,2.4-.4,4.4,4.4,0,0,1,2.6.8,5.2,5.2,0,0,1,1.7,1.6,5.8,5.8,0,0,1,.7,2.1A4.9,4.9,0,0,1,184.9,137.6Zm5.2-9.8-.7-.3a8.7,8.7,0,0,1,.1-2.3l-15.5-6-.7,1-.8.9-.8-.3,2.6-6.7.8.2a4.9,4.9,0,0,1-.1,1.2,4.9,4.9,0,0,1-.1,1.2l15.6,5.9.7-1,.7-.8.8.3Zm4.7-13.2H194l-.3-1.2v-1.2l-16.6-2.3c-.1.4-.3.8-.4,1.2l-.6,1h-.8l.4-2.5c.1-.8.1-1.6.2-2.5a19.5,19.5,0,0,1,.2-2.5,19.7,19.7,0,0,1,.7-2.6,5.4,5.4,0,0,1,1.3-2.2,6,6,0,0,1,2.1-1.4,5.8,5.8,0,0,1,3-.2,5.8,5.8,0,0,1,2.7,1,5.5,5.5,0,0,1,1.7,2,7.1,7.1,0,0,1,.7,2.6,13.1,13.1,0,0,1,0,2.8,4.3,4.3,0,0,0-.1.5,1.3,1.3,0,0,1-.1.6c0,.2-.1.4-.1.6a1.1,1.1,0,0,0-.1.5l6.1.8a7.8,7.8,0,0,1,.5-1.4l.6-1.2.8.2Z" transform="translate(0.1 0.5)"/><path class="a" d="M186.2,102.9a5.8,5.8,0,0,0-1.4-1.3,5.3,5.3,0,0,0-2.1-.6,4,4,0,0,0-3.6.8,5,5,0,0,0-1.6,3.4,4.5,4.5,0,0,0-.1,1.1,1.1,1.1,0,0,0,0,.8l9,1.3c0-.1.1-.3.1-.4a1.3,1.3,0,0,0,.1-.6,1.3,1.3,0,0,0,.1-.6.6.6,0,0,0,.1-.4,6.1,6.1,0,0,0,0-1.9A4.4,4.4,0,0,0,186.2,102.9Z" transform="translate(0.1 0.5)"/><polygon class="a" points="84 41.7 84.1 41.7 83.4 39.2 82.2 33 77.3 36 82.3 39.9 84 41.7"/><path class="b" d="M116.5,5A91.5,91.5,0,1,0,208,96.5,91.5,91.5,0,0,0,116.5,5Zm0,182A90.5,90.5,0,1,1,207,96.5,90.6,90.6,0,0,1,116.5,187Z" transform="translate(0.1 0.5)"/><path class="b" d="M67.5,96.5a49,49,0,1,0,49-49A49,49,0,0,0,67.5,96.5Zm49,15.3h2.2a8.7,8.7,0,0,1,1.2,1.4l1.5,1.7,1.4,1.8a13.2,13.2,0,0,0,1.2,1.6l1.4.5h1.7a12.5,12.5,0,0,0,4.3-.7,9.8,9.8,0,0,0,3.3-2.3,10.2,10.2,0,0,0,2.3-3.4,13.3,13.3,0,0,0,.8-4.5,9.7,9.7,0,0,0-1-4.6,8.3,8.3,0,0,0-2.8-3.3,12.1,12.1,0,0,0-4.1-2,19.3,19.3,0,0,0-4.9-.6h-6.6l3-27.7h19.8l3.6-4.2h2.6c0,.8-.1,1.8-.1,3l-.3,3.7c-.2,1.2-.3,2.5-.5,3.6a18.3,18.3,0,0,1-.7,2.6H125.1l-1.4,10.8H130a24.5,24.5,0,0,1,7.4,1.1,16.6,16.6,0,0,1,5.7,3.2,14.6,14.6,0,0,1,3.7,5.1,18.5,18.5,0,0,1,1.2,6.9,17.4,17.4,0,0,1-1.6,7.7,18.9,18.9,0,0,1-4.4,5.7,20.8,20.8,0,0,1-6.6,3.5,24.3,24.3,0,0,1-8.2,1.3,23,23,0,0,1-13.9-4.6ZM91.7,73.2a55.1,55.1,0,0,0,8.8-4.2h2.6v48.1l3.8,1.1,3.8,1.5V123H84.4v-3.3c1.3-.6,2.6-1,3.9-1.5l3.9-1.1V82.3l.3-4.5a23.3,23.3,0,0,1-4.4,1,36.9,36.9,0,0,1-4.7.1L83,76.1A80.5,80.5,0,0,0,91.7,73.2Z" transform="translate(0.1 0.5)"/><path class="a" d="M88.1,78.8a23.3,23.3,0,0,0,4.4-1l-.3,4.5v34.8l-3.9,1.1c-1.3.5-2.6.9-3.9,1.5V123h26.3v-3.3l-3.8-1.5-3.8-1.1V69h-2.6a55.1,55.1,0,0,1-8.8,4.2A80.5,80.5,0,0,1,83,76.1l.4,2.8A36.9,36.9,0,0,0,88.1,78.8Z" transform="translate(0.1 0.5)"/><path class="a" d="M127.2,123.9a24.3,24.3,0,0,0,8.2-1.3,20.8,20.8,0,0,0,6.6-3.5,18.9,18.9,0,0,0,4.4-5.7,17.4,17.4,0,0,0,1.6-7.7,18.5,18.5,0,0,0-1.2-6.9,14.6,14.6,0,0,0-3.7-5.1,16.6,16.6,0,0,0-5.7-3.2,24.5,24.5,0,0,0-7.4-1.1h-6.3l1.4-10.8h20.7a18.3,18.3,0,0,0,.7-2.6c.2-1.1.3-2.4.5-3.6l.3-3.7c0-1.2.1-2.2.1-3h-2.6l-3.6,4.2H121.4l-3,27.7H125a19.3,19.3,0,0,1,4.9.6,12.1,12.1,0,0,1,4.1,2,8.3,8.3,0,0,1,2.8,3.3,9.7,9.7,0,0,1,1,4.6,13.3,13.3,0,0,1-.8,4.5,10.2,10.2,0,0,1-2.3,3.4,9.8,9.8,0,0,1-3.3,2.3,12.5,12.5,0,0,1-4.3.7h-1.7l-1.4-.5a13.2,13.2,0,0,1-1.2-1.6l-1.4-1.8-1.5-1.7a8.7,8.7,0,0,0-1.2-1.4h-2.2l-3.2,7.5a23,23,0,0,0,13.9,4.6Z" transform="translate(0.1 0.5)"/><path class="b" d="M96.6,37.2l-.9.6-.9.7.2.8,6.9-2.1-.3-.8H99.2L94.4,21.1a14,14,0,0,1-.6-2.4,5.7,5.7,0,0,1-.1-1.8,5.1,5.1,0,0,1,.2-1.3,4.7,4.7,0,0,1,.5-1l-.4-.3a4.7,4.7,0,0,0-1.2.9,5.6,5.6,0,0,0-1,1.5,5.3,5.3,0,0,0-.4,2.3,8.1,8.1,0,0,0,.5,3.2Z" transform="translate(0.1 0.5)"/><path class="b" d="M68.3,32.9l1.1-.4L85.1,44.7l.7-.5L82.3,24.7a10.7,10.7,0,0,0,1.4-1.6l-.4-.7-5.4,3.2.4.7a10.3,10.3,0,0,0,2.5-.7l1,5.4-5.7,3.5L71.8,31l.9-.8.8-.9-.5-.7-6.2,3.7.4.7Zm13.8-.4,1.2,6.2.7,2.5h0l-1.7-1.8-5-3.9Z" transform="translate(0.1 0.5)"/><path class="b" d="M51.2,50.9l1-.8L64.8,61a3.7,3.7,0,0,0-.5,1.1,2.1,2.1,0,0,0-.4,1.1l.6.5,4.6-5.4-.6-.5-.9.5-1,.6L61,54.1l5.8-6.7,5.6,4.8a9.3,9.3,0,0,0-.5,1,4.9,4.9,0,0,0-.4,1.1l.6.5,4.7-5.4-.6-.5a8,8,0,0,0-2.1,1.3L61.5,39.3a14.7,14.7,0,0,0,1-2.2l-.7-.5L57.2,42l.6.5,1-.5.9-.6,6,5.1-5.8,6.7-6-5.1a9.5,9.5,0,0,0,.9-2.1l-.6-.5-4.6,5.4.6.5Z" transform="translate(0.1 0.5)"/><path class="b" d="M41.3,71.8l4.5-1,4.5-.9a6.7,6.7,0,0,0,.6,3.5,5.6,5.6,0,0,0,2.7,2.3,4.9,4.9,0,0,0,2.5.5,4.6,4.6,0,0,0,2.1-.5A5.5,5.5,0,0,0,60,74.1a11.6,11.6,0,0,0,1.3-2.2l.9-2.5c.3-.8.5-1.6.8-2.3l1-2.3-.7-.3-.8.8a10.5,10.5,0,0,0-.8,1.1L46.4,59.9a5,5,0,0,1,.2-1.2V57.5l-.7-.4L43,64l.7.3.8-.9.8-1.1,6.6,2.9-1,2.4H48.6l-2.3.2-2.2.4-2.3.5-1.2.7-1.3,3.2.6.2Zm11-4.3.8-1.9,7.7,3.3c-.1.3-.1.5-.2.8a10.4,10.4,0,0,0-.4,1A4.6,4.6,0,0,1,58,73.2a3.3,3.3,0,0,1-3.2-.1,4.6,4.6,0,0,1-2.6-2.3A4.2,4.2,0,0,1,52.3,67.5Z" transform="translate(0.1 0.5)"/><path class="b" d="M41,92.8v-.6l-3.2-1.8.8-6.4,7.8.9-.6,4.6-2.2.8V91c1.9.3,3.8.6,5.6.7V91l-1.9-1.4.5-4.5,7.4.9-.7,6.1-3.2.7v.8l2.2.5,2.3.3,1.6-13.2h-.8L56,82.2c-.1.4-.3.7-.4,1.1L39,81.3a8.8,8.8,0,0,0-.3-2.4h-.9L36.2,92.6l2.4.2A9.6,9.6,0,0,0,41,92.8Z" transform="translate(0.1 0.5)"/><path class="b" d="M56.9,112l.6.9.8-.2-1.6-7-.8.2a4.9,4.9,0,0,0-.1,1.2,4.9,4.9,0,0,0-.1,1.2l-15.6,3.6-2.5.4H35.9a2.5,2.5,0,0,1-1.3-.3,3.3,3.3,0,0,1-1-.6l-.3.4a2.8,2.8,0,0,0,.8,1.2,4.2,4.2,0,0,0,1.4,1.2,6.4,6.4,0,0,0,2.2.6,10.1,10.1,0,0,0,3.3-.3L56.3,111Z" transform="translate(0.1 0.5)"/><path class="b" d="M63.8,129.8l.8.8,1,.7.8-.3-2.7-5.4-.7.4v1.1a6.2,6.2,0,0,0,.1,1.3l-10,5a5.6,5.6,0,0,1-4.2.6,4.5,4.5,0,0,1-2.6-2.5,9.6,9.6,0,0,1-.7-2,3.7,3.7,0,0,1,.1-1.8,4.4,4.4,0,0,1,1-1.5,7,7,0,0,1,2.1-1.4l10.3-5.1.7.8.9.8.7-.4-3.2-6.4-.7.4a6.1,6.1,0,0,0,.4,2.4l-10.7,5.3a6.3,6.3,0,0,0-3.6,3.8,7.6,7.6,0,0,0,1,5.5,7.9,7.9,0,0,0,1.6,2.3,5.3,5.3,0,0,0,2,1.3,5.2,5.2,0,0,0,2.5.3,10.5,10.5,0,0,0,3-1Z" transform="translate(0.1 0.5)"/><path class="b" d="M67.3,145.4h.1a6.1,6.1,0,0,0,1.7.7h1.6l1.4-.4a6,6,0,0,0,1.3-.9,4.1,4.1,0,0,0,1.3-2,3.7,3.7,0,0,0,0-2.1,5.4,5.4,0,0,0-1-2,8.6,8.6,0,0,0-1.4-1.8,4.7,4.7,0,0,0-1-1l-.8-.8-.7-.8-.8-.7-2-2.2-.6.6.5,1.1.6,1.1L55.3,145.7a7.4,7.4,0,0,0-2.1-1.3l-.6.6,1.9,2a14.3,14.3,0,0,1,1.5,1.8l1.5,1.6a19,19,0,0,0,2.1,1.9,11.2,11.2,0,0,0,2.5,1.1,5.3,5.3,0,0,0,2.5,0,5.7,5.7,0,0,0,2.4-1.3,6.6,6.6,0,0,0,1.2-1.7,5.1,5.1,0,0,0,.3-1.7,4.7,4.7,0,0,0-.4-1.7A4.8,4.8,0,0,0,67.3,145.4Zm-1.2,3.2a3.3,3.3,0,0,1-1.1,1.6,3.8,3.8,0,0,1-1.5.9,4.4,4.4,0,0,1-1.6.2,5.5,5.5,0,0,1-1.7-.5l-1.5-1.2-1.1-1.3-.6-.8,5.7-5.3,1.5,1.5,1.2,1.6a4.1,4.1,0,0,1,.7,1.7A2.9,2.9,0,0,1,66.1,148.6Zm.3-4.9c-.3-.1-.5-.4-.9-.7l-.8-.8-.9-1,5.5-5.2.7.7,1.1,1.1a4.3,4.3,0,0,1,1.3,2.8,3.3,3.3,0,0,1-1.2,2.7,4.3,4.3,0,0,1-2.3,1A4.4,4.4,0,0,1,66.4,143.7Z" transform="translate(0.1 0.5)"/><path class="b" d="M73.7,162l9.4-13.8,1.1.4,1.1.2.5-.7-6-4-.5.7a6.1,6.1,0,0,1,.7,1l.8.8-9.3,13.9a6.3,6.3,0,0,0-2.2-.7l-.5.7,6,4,.4-.7-.6-.9Z" transform="translate(0.1 0.5)"/><path class="b" d="M91.7,170.8l-6-2.4,6.1-15.5,1.4.2h1.4l.3-.8-7.2-2.8-.3.7.9.8,1,.8-6.1,15.5-1.1-.2H80.8l-.3.8,13.1,5.2.6-1.3a8.8,8.8,0,0,1,.5-1.5,8.8,8.8,0,0,0,.5-1.5c.1-.5.3-1,.4-1.4l-.7-.2Z" transform="translate(0.1 0.5)"/><path class="b" d="M113,152.8c-.4.2-.5.5-.6,1a1.3,1.3,0,0,0,.4,1,1.6,1.6,0,0,0,1.1.4,1.4,1.4,0,0,0,1.1-.2,1.1,1.1,0,0,0,.6-.9,1.4,1.4,0,0,0-.4-1.1,1.8,1.8,0,0,0-1.1-.4A1.4,1.4,0,0,0,113,152.8Z" transform="translate(0.1 0.5)"/><path class="b" d="M106.7,152.2a1.1,1.1,0,0,0-.5,1,1,1,0,0,0,.3,1,1.5,1.5,0,0,0,1.1.4,1.6,1.6,0,0,0,1.2-.2,1.1,1.1,0,0,0,.5-.9,1.1,1.1,0,0,0-.3-1.1,2.1,2.1,0,0,0-1.1-.4A1.6,1.6,0,0,0,106.7,152.2Z" transform="translate(0.1 0.5)"/><path class="b" d="M116.3,174.9,111,155.8h-.8l-8.9,17.8-2,.5v.8l6.2.6v-.8l-2.4-.9,2.4-5,6.6.7,1.4,5.3h-1.2l-1.1.3v.8l7.2.7v-.8l-1-.5Zm-10.1-7.6,2.7-5.6.9-2.4h0l.3,2.4,1.7,6.2Z" transform="translate(0.1 0.5)"/><path class="b" d="M136.2,155.4l1.1-.6.9-.8-.2-.8-5.8,1.2v.8l1.1.3,1.3.2,2.3,11c.4,1.8.3,3.2-.4,4.1a4.7,4.7,0,0,1-3.1,2,7.4,7.4,0,0,1-2.1.1,2.8,2.8,0,0,1-1.6-.5,3.5,3.5,0,0,1-1.3-1.4,6.9,6.9,0,0,1-.8-2.3l-2.4-11.3,1-.5.9-.6v-.8l-7,1.5.2.8a9.7,9.7,0,0,0,2.4.2l2.4,11.7c.5,2.1,1.4,3.6,2.9,4.4s3.2.9,5.5.4a8.8,8.8,0,0,0,2.6-.9,5.9,5.9,0,0,0,1.8-1.7,7.5,7.5,0,0,0,.9-2.4,11.5,11.5,0,0,0-.2-3.1Z" transform="translate(0.1 0.5)"/><path class="b" d="M166.7,157.7l-1.1.4-8.7-14.2.7-.9.7-.9-.4-.7-4.3,2.7,2.4,13.5.8,3h-.1l-2.3-2-10.9-8.4-4.9,3.1.4.7,1.2-.3,1.1-.3,8.8,14.1-.8.9-.8.9.5.7,5-3.1-.5-.7-1.1.2-1,.4-6.7-10.8-1.9-3h.2l2.6,2.2,12.3,9.4.6-.4-2.7-15.3-.8-3,.2-.2,1.6,2.9,6.7,10.8-.8.8-.8.9.4.7,5.9-3.6-.4-.7Z" transform="translate(0.1 0.5)"/><path class="b" d="M184.4,133.1a5.2,5.2,0,0,0-1.7-1.6,4.4,4.4,0,0,0-2.6-.8,6.7,6.7,0,0,0-2.4.4l-2.4,1.2a11.9,11.9,0,0,1-2.2,1.2,5.8,5.8,0,0,1-2.1.7,3,3,0,0,1-3.4-2.4,3.6,3.6,0,0,1,.6-2.4,6.4,6.4,0,0,1,1-1.3,2.8,2.8,0,0,1,1-.9l3.8,1.1.4-.6-.8-.8-1-.9-1-.8-.9-.7a11.5,11.5,0,0,0-1.8,1.6,16.8,16.8,0,0,0-1.9,2.4,8.4,8.4,0,0,0-1,2.2,8.2,8.2,0,0,0-.2,2.1,4.4,4.4,0,0,0,.7,1.9,4.6,4.6,0,0,0,1.6,1.5,4.8,4.8,0,0,0,2.6.9,8,8,0,0,0,4.8-1.6l2.2-1.3,2.1-.7a2.6,2.6,0,0,1,1.9.5,2.9,2.9,0,0,1,1.1,1.1,3.4,3.4,0,0,1,.5,1.4,3.9,3.9,0,0,1-.2,1.5,5.1,5.1,0,0,1-.7,1.5,5,5,0,0,1-1.1,1.3l-.9.4-4.1-1.3-.4.6.8.8,1.1,1,1.1.9.9.7a9.2,9.2,0,0,0,1.8-1.2,13.2,13.2,0,0,0,2.1-2.5,7.6,7.6,0,0,0,1.2-2.6,4.9,4.9,0,0,0,.2-2.4A5.8,5.8,0,0,0,184.4,133.1Z" transform="translate(0.1 0.5)"/><path class="b" d="M191.2,121.6l-.7,1-15.6-5.9a4.9,4.9,0,0,0,.1-1.2,4.9,4.9,0,0,0,.1-1.2l-.8-.2-2.6,6.7.8.3.8-.9.7-1,15.5,6a8.7,8.7,0,0,0-.1,2.3l.7.3,2.6-6.7-.8-.3Z" transform="translate(0.1 0.5)"/><path class="b" d="M194.5,108a7.8,7.8,0,0,0-.5,1.4l-6.1-.8a1.1,1.1,0,0,1,.1-.5c0-.2.1-.4.1-.6a1.3,1.3,0,0,0,.1-.6,4.3,4.3,0,0,1,.1-.5,13.1,13.1,0,0,0,0-2.8,7.1,7.1,0,0,0-.7-2.6,5.5,5.5,0,0,0-1.7-2,5.8,5.8,0,0,0-2.7-1,5.8,5.8,0,0,0-3,.2,6,6,0,0,0-2.1,1.4,5.4,5.4,0,0,0-1.3,2.2,19.7,19.7,0,0,0-.7,2.6,19.5,19.5,0,0,0-.2,2.5c-.1.9-.1,1.7-.2,2.5l-.4,2.5h.8l.6-1c.1-.4.3-.8.4-1.2l16.6,2.3v1.2l.3,1.2h.8l1.1-7.6-.8-.2Zm-7.7-1.6a.6.6,0,0,1-.1.4,1.3,1.3,0,0,1-.1.6,1.3,1.3,0,0,1-.1.6c0,.1-.1.3-.1.4l-9-1.3a1.1,1.1,0,0,1,0-.8,4.5,4.5,0,0,1,.1-1.1,5,5,0,0,1,1.6-3.4,4,4,0,0,1,3.6-.8,5.3,5.3,0,0,1,2.1.6,5.8,5.8,0,0,1,1.4,1.3,4.4,4.4,0,0,1,.6,1.6A6.1,6.1,0,0,1,186.8,106.4Z" transform="translate(0.1 0.5)"/><path class="b" d="M178.7,95.5l1.5-.3,1.4-.3,1.3-.3v-.7l-4.2-.9-.6-4.3,16.6-2.2.4,1.3.6,1.2.8-.2L195.3,81h-.8a5.9,5.9,0,0,0-.2,1.3c0,.4-.1.9-.1,1.4l-16.6,2.3-.6-4.3,3.8-2v-.7H178l-1.5.2h-1.2l2.2,16.2Z" transform="translate(0.1 0.5)"/></svg>