<?xml version="1.0" encoding="utf-8"?>
<!-- Generator: Adobe Illustrator 24.2.0, SVG Export Plug-In . SVG Version: 6.00 Build 0)  -->
<svg version="1.1" id="Ebene_1" xmlns="http://www.w3.org/2000/svg" xmlns:xlink="http://www.w3.org/1999/xlink" x="0px" y="0px"
	 viewBox="0 0 226.584 122.44" enable-background="new 0 0 226.584 122.44" xml:space="preserve">
<g>
	<path fill="none" d="M125.808,116.131c-0.267,0.07-0.471,0.156-0.615,0.259c-0.144,0.104-0.24,0.225-0.289,0.363
		c-0.049,0.138-0.074,0.292-0.074,0.459c0,0.256,0.089,0.459,0.267,0.607c0.178,0.148,0.425,0.222,0.74,0.222
		c0.533,0,0.967-0.123,1.303-0.37c0.188-0.138,0.341-0.314,0.459-0.526c0.118-0.212,0.178-0.477,0.178-0.792v-0.4l-0.918,0.044
		C126.426,116.017,126.075,116.062,125.808,116.131z"/>
	<path fill="none" d="M135.04,12.63l-19.091,0.004l-0.016,20.086l19.107,0.001c4.869,0,8.831-4.172,8.831-10.046
		C143.871,17.788,139.91,12.63,135.04,12.63z"/>
	<path fill="none" d="M95.182,116.131c-0.267,0.07-0.471,0.156-0.615,0.259c-0.144,0.104-0.24,0.225-0.289,0.363
		c-0.049,0.138-0.074,0.292-0.074,0.459c0,0.256,0.089,0.459,0.267,0.607c0.178,0.148,0.425,0.222,0.74,0.222
		c0.533,0,0.967-0.123,1.303-0.37c0.188-0.138,0.341-0.314,0.459-0.526c0.118-0.212,0.178-0.477,0.178-0.792v-0.4l-0.918,0.044
		C95.8,116.017,95.449,116.062,95.182,116.131z"/>
	<path fill="none" d="M141.091,113.096c-0.592,0-1.035,0.207-1.325,0.622c-0.292,0.415-0.437,1.017-0.437,1.807
		c0,0.8,0.142,1.41,0.429,1.829c0.286,0.419,0.73,0.629,1.333,0.629c0.592,0,1.034-0.212,1.325-0.637
		c0.29-0.425,0.437-1.032,0.437-1.822c0-0.789-0.147-1.392-0.437-1.807C142.125,113.303,141.683,113.096,141.091,113.096z"/>
	<path fill="none" d="M154.597,113.096c-0.592,0-1.035,0.207-1.325,0.622c-0.292,0.415-0.437,1.017-0.437,1.807
		c0,0.8,0.142,1.41,0.43,1.829c0.286,0.419,0.73,0.629,1.333,0.629c0.592,0,1.034-0.212,1.325-0.637
		c0.29-0.425,0.437-1.032,0.437-1.822c0-0.789-0.147-1.392-0.437-1.807C155.631,113.303,155.19,113.096,154.597,113.096z"/>
	<path fill="none" d="M45.766,93.74c-0.277,0-0.518,0.044-0.726,0.133c-0.207,0.089-0.384,0.21-0.526,0.363
		c-0.144,0.153-0.255,0.33-0.333,0.533c-0.08,0.203-0.124,0.422-0.133,0.659h3.332c0-0.533-0.132-0.948-0.392-1.244
		C46.725,93.888,46.318,93.74,45.766,93.74z"/>
	<path fill="none" d="M75.057,113.096c-0.592,0-1.034,0.207-1.325,0.622c-0.29,0.415-0.437,1.017-0.437,1.807
		c0,0.8,0.144,1.41,0.429,1.829c0.287,0.419,0.732,0.629,1.333,0.629c0.592,0,1.035-0.212,1.325-0.637
		c0.292-0.425,0.437-1.032,0.437-1.822c0-0.789-0.145-1.392-0.437-1.807C76.092,113.303,75.649,113.096,75.057,113.096z"/>
	<path fill="none" d="M66.38,93.74c-0.277,0-0.518,0.044-0.726,0.133c-0.207,0.089-0.384,0.21-0.526,0.363
		c-0.144,0.153-0.255,0.33-0.333,0.533c-0.08,0.203-0.124,0.422-0.133,0.659h3.332c0-0.533-0.132-0.948-0.392-1.244
		C67.34,93.888,66.932,93.74,66.38,93.74z"/>
	<path fill="none" d="M33.459,111.052c-0.148-0.129-0.348-0.227-0.6-0.296c-0.252-0.07-0.57-0.104-0.955-0.104h-1.57v3.14h1.585
		c0.385,0,0.703-0.04,0.955-0.118s0.452-0.188,0.6-0.326c0.148-0.138,0.249-0.308,0.304-0.511c0.053-0.203,0.081-0.422,0.081-0.659
		c0-0.247-0.03-0.464-0.089-0.652C33.711,111.338,33.607,111.181,33.459,111.052z"/>
	<path fill="none" d="M177.461,112.992c-0.275,0-0.518,0.044-0.726,0.133c-0.207,0.089-0.382,0.21-0.526,0.363
		c-0.142,0.153-0.253,0.33-0.333,0.533c-0.078,0.203-0.123,0.422-0.133,0.659h3.332c0-0.533-0.13-0.948-0.392-1.244
		C178.422,113.14,178.015,112.992,177.461,112.992z"/>
	<path fill="none" d="M165.054,113.487c-0.167-0.153-0.354-0.253-0.56-0.302c-0.206-0.049-0.413-0.074-0.619-0.074
		c-0.227,0-0.44,0.04-0.641,0.118s-0.379,0.206-0.532,0.384s-0.273,0.403-0.361,0.678c-0.087,0.275-0.132,0.606-0.132,0.989
		c0,0.817,0.154,1.395,0.464,1.734c0.31,0.339,0.696,0.509,1.158,0.509c0.256,0,0.493-0.037,0.715-0.111
		c0.221-0.074,0.41-0.191,0.567-0.354s0.28-0.373,0.369-0.634c0.089-0.261,0.133-0.579,0.133-0.952v-0.207
		c0-0.462-0.052-0.837-0.156-1.121C165.358,113.858,165.221,113.639,165.054,113.487z"/>
	<polygon fill="#FF7A00" points="83.442,0.039 69.703,0.027 69.703,74.433 83.442,74.433 	"/>
	<path fill="#FF7A00" d="M226.573,0.142h-62.911l0.009,12.571h24.604v61.719l13.737,0.001l0.002-61.722l24.57,0.002
		C226.587,12.833,226.573,0.142,226.573,0.142z"/>
	<path fill="#FF7A00" d="M135.918,0.024h-33.62l-0.001,74.41h13.625V45.327l19.996,0.001c11.936-0.074,21.255-10.653,21.255-22.652
		C157.172,10.678,147.854,0.098,135.918,0.024z M135.04,32.722l-19.107-0.001l0.016-20.086l19.091-0.004
		c4.869,0,8.831,5.158,8.831,10.046C143.871,28.55,139.91,32.722,135.04,32.722z"/>
	<path fill="#1D1D1B" d="M43.537,115.546c-0.213-0.203-0.496-0.373-0.852-0.511c-0.355-0.138-0.806-0.252-1.348-0.341l-0.977-0.163
		c-0.444-0.078-0.743-0.175-0.896-0.289c-0.154-0.114-0.23-0.293-0.23-0.541c0-0.078,0.022-0.163,0.067-0.252
		c0.044-0.089,0.118-0.167,0.222-0.237c0.104-0.07,0.246-0.126,0.43-0.17c0.182-0.044,0.412-0.067,0.689-0.067
		c0.493,0,0.852,0.084,1.074,0.252s0.378,0.429,0.466,0.785l1.851-0.237c-0.059-0.326-0.155-0.632-0.289-0.918
		s-0.332-0.533-0.592-0.74c-0.262-0.207-0.6-0.373-1.014-0.496s-0.929-0.185-1.54-0.185c-0.495,0-0.946,0.056-1.355,0.17
		c-0.41,0.114-0.763,0.274-1.059,0.481c-0.296,0.207-0.526,0.459-0.689,0.755c-0.163,0.296-0.244,0.632-0.244,1.007
		c0,0.73,0.23,1.277,0.689,1.636c0.459,0.36,1.157,0.615,2.096,0.763l1.066,0.178c0.375,0.059,0.629,0.163,0.763,0.311
		c0.133,0.148,0.2,0.321,0.2,0.518c0,0.277-0.107,0.477-0.318,0.6c-0.213,0.123-0.566,0.185-1.059,0.185
		c-0.415,0-0.77-0.07-1.066-0.207c-0.296-0.138-0.48-0.434-0.548-0.889h-1.984c0.03,0.523,0.15,0.958,0.363,1.303
		c0.212,0.345,0.483,0.622,0.815,0.829c0.33,0.207,0.705,0.352,1.125,0.437c0.419,0.084,0.86,0.126,1.325,0.126
		c1.155,0,2.008-0.219,2.562-0.659c0.552-0.44,0.829-1.025,0.829-1.755c0-0.366-0.043-0.686-0.126-0.963
		C43.897,115.988,43.749,115.749,43.537,115.546z"/>
	<path fill="#1D1D1B" d="M105.919,116.324c0,0.227-0.047,0.437-0.141,0.629c-0.093,0.193-0.219,0.358-0.378,0.496
		c-0.159,0.148-0.323,0.262-0.496,0.341c-0.173,0.078-0.392,0.118-0.659,0.118c-0.345,0-0.618-0.096-0.815-0.289
		s-0.296-0.566-0.296-1.118v-4.828h-2.073v5.109c0,0.988,0.207,1.71,0.622,2.17c0.415,0.459,1.062,0.689,1.94,0.689
		c0.455,0,0.881-0.104,1.281-0.311s0.758-0.538,1.074-0.992v1.066h2.014v-7.73h-2.073V116.324z"/>
	<path fill="#1D1D1B" d="M118.848,111.437c-0.474,0-0.908,0.104-1.303,0.311c-0.395,0.207-0.77,0.548-1.125,1.022
		c-0.148-0.434-0.4-0.766-0.755-0.992c-0.355-0.227-0.815-0.341-1.377-0.341c-0.425,0-0.829,0.104-1.214,0.311
		c-0.385,0.207-0.721,0.529-1.007,0.963v-1.037h-2.014v7.73h2.073v-4.65c0-0.227,0.041-0.437,0.126-0.629
		c0.084-0.193,0.194-0.358,0.333-0.496c0.167-0.167,0.338-0.286,0.511-0.355c0.173-0.07,0.363-0.104,0.57-0.104
		c0.129,0,0.252,0.019,0.37,0.059s0.219,0.108,0.304,0.207c0.084,0.099,0.151,0.234,0.2,0.407c0.049,0.173,0.074,0.397,0.074,0.674
		v4.887h2.073v-4.739c0-0.197,0.042-0.385,0.126-0.563c0.084-0.178,0.195-0.336,0.333-0.474c0.167-0.167,0.338-0.286,0.511-0.355
		c0.172-0.07,0.363-0.104,0.57-0.104c0.129,0,0.252,0.019,0.37,0.059s0.219,0.108,0.304,0.207c0.084,0.099,0.151,0.234,0.2,0.407
		c0.049,0.173,0.074,0.397,0.074,0.674v4.887h2.073v-5.168c0-0.988-0.2-1.7-0.6-2.14
		C120.247,111.656,119.647,111.437,118.848,111.437z"/>
	<path fill="#1D1D1B" d="M35.199,109.83c-0.311-0.301-0.732-0.543-1.259-0.726c-0.529-0.182-1.198-0.274-2.007-0.274h-3.776v10.574
		h2.177v-3.776h1.659c0.789,0,1.444-0.093,1.962-0.281c0.518-0.188,0.933-0.441,1.244-0.763c0.311-0.321,0.527-0.693,0.652-1.118
		c0.123-0.425,0.185-0.869,0.185-1.333c0-0.434-0.062-0.852-0.185-1.251C35.726,110.482,35.51,110.131,35.199,109.83z
		 M33.777,112.836c-0.055,0.203-0.156,0.373-0.304,0.511c-0.148,0.138-0.348,0.247-0.6,0.326s-0.57,0.118-0.955,0.118h-1.585v-3.14
		h1.57c0.385,0,0.703,0.034,0.955,0.104c0.252,0.07,0.452,0.167,0.6,0.296c0.148,0.129,0.252,0.286,0.311,0.474
		c0.059,0.188,0.089,0.404,0.089,0.652C33.859,112.414,33.831,112.633,33.777,112.836z"/>
	<path fill="#1D1D1B" d="M48.979,116.753l-1.807-5.08h-2.399l3.214,7.39l-0.237,0.652c-0.119,0.336-0.262,0.57-0.43,0.703
		c-0.169,0.133-0.391,0.2-0.666,0.2c-0.296,0-0.588-0.04-0.874-0.119l-0.341,1.54c0.275,0.089,0.541,0.151,0.792,0.185
		c0.252,0.034,0.505,0.052,0.763,0.052c0.415,0,0.763-0.055,1.044-0.163c0.281-0.108,0.523-0.274,0.726-0.496
		c0.201-0.222,0.382-0.499,0.541-0.829c0.157-0.33,0.326-0.718,0.504-1.163l3.125-7.953h-2.266L48.979,116.753z"/>
	<path fill="#1D1D1B" d="M129.059,112.266c-0.252-0.267-0.585-0.471-1-0.615c-0.415-0.144-0.918-0.215-1.511-0.215
		c-0.967,0-1.737,0.181-2.31,0.541s-0.929,0.945-1.066,1.755l1.896,0.178c0.118-0.622,0.586-0.933,1.407-0.933
		c0.355,0,0.663,0.089,0.926,0.267c0.262,0.178,0.392,0.503,0.392,0.977v0.385l-0.992,0.044c-0.495,0.019-0.98,0.07-1.459,0.148
		s-0.911,0.212-1.296,0.4c-0.385,0.188-0.696,0.449-0.933,0.785s-0.355,0.77-0.355,1.303c0,0.404,0.07,0.752,0.207,1.044
		c0.138,0.292,0.323,0.53,0.555,0.718c0.232,0.188,0.504,0.326,0.815,0.415s0.64,0.133,0.985,0.133c0.603,0,1.093-0.108,1.474-0.326
		c0.381-0.218,0.723-0.499,1.029-0.844v0.977h1.955v-4.887c0-0.474-0.056-0.9-0.17-1.281S129.31,112.533,129.059,112.266z
		 M127.778,116.354c0,0.315-0.059,0.581-0.178,0.792c-0.118,0.212-0.271,0.388-0.459,0.526c-0.336,0.247-0.77,0.37-1.303,0.37
		c-0.315,0-0.563-0.074-0.74-0.222c-0.178-0.148-0.267-0.351-0.267-0.607c0-0.167,0.025-0.321,0.074-0.459
		c0.049-0.138,0.145-0.259,0.289-0.363c0.144-0.104,0.348-0.19,0.615-0.259c0.267-0.07,0.618-0.114,1.051-0.133l0.918-0.044V116.354
		z"/>
	<path fill="#1D1D1B" d="M66.838,111.437c-0.444,0-0.868,0.099-1.274,0.296c-0.404,0.197-0.76,0.503-1.066,0.918v-3.821h-2.073
		v10.574h2.073v-4.65c0-0.227,0.047-0.437,0.141-0.629c0.095-0.193,0.21-0.358,0.348-0.496c0.169-0.148,0.348-0.262,0.541-0.341
		s0.422-0.118,0.689-0.118c0.346,0,0.622,0.099,0.829,0.296s0.311,0.567,0.311,1.111v4.828h2.073v-5.109
		c0-0.988-0.212-1.711-0.637-2.17C68.369,111.666,67.717,111.437,66.838,111.437z"/>
	<path fill="#1D1D1B" d="M84.631,117.872c-0.142,0.015-0.283,0.022-0.422,0.022c-0.267,0-0.483-0.071-0.652-0.215
		c-0.167-0.144-0.252-0.418-0.252-0.822v-3.569h1.777v-1.614h-1.777v-2.058h-2.073v2.058h-1.214v1.614h1.214v3.613
		c0,0.958,0.206,1.639,0.615,2.044c0.41,0.404,1.04,0.607,1.888,0.607c0.247,0,0.506-0.018,0.778-0.052
		c0.272-0.034,0.551-0.096,0.837-0.185l-0.296-1.525C84.915,117.83,84.775,117.857,84.631,117.872z"/>
	<path fill="#1D1D1B" d="M77.922,112.525c-0.341-0.351-0.752-0.619-1.237-0.807c-0.483-0.188-1.026-0.281-1.629-0.281
		c-0.592,0-1.13,0.093-1.614,0.281c-0.483,0.188-0.896,0.456-1.237,0.807c-0.341,0.351-0.601,0.78-0.785,1.288
		c-0.182,0.508-0.274,1.078-0.274,1.71c0,1.322,0.341,2.34,1.022,3.051c0.681,0.711,1.644,1.066,2.888,1.066
		c0.592,0,1.131-0.093,1.614-0.281c0.484-0.188,0.896-0.459,1.237-0.815c0.341-0.355,0.603-0.788,0.785-1.296
		c0.184-0.508,0.274-1.084,0.274-1.725c0-0.632-0.089-1.203-0.267-1.71C78.522,113.306,78.263,112.876,77.922,112.525z
		 M76.382,117.346c-0.29,0.425-0.733,0.637-1.325,0.637c-0.601,0-1.046-0.21-1.333-0.629c-0.286-0.419-0.429-1.029-0.429-1.829
		c0-0.789,0.147-1.392,0.437-1.807c0.292-0.415,0.733-0.622,1.325-0.622c0.592,0,1.035,0.207,1.325,0.622
		c0.292,0.415,0.437,1.017,0.437,1.807C76.819,116.314,76.674,116.921,76.382,117.346z"/>
	<path fill="#1D1D1B" d="M22.16,111.541c-0.406,0-0.791,0.101-1.155,0.304c-0.366,0.203-0.677,0.506-0.933,0.911v-1.081h-2.014v7.73
		h2.073v-4.472c0-0.207,0.042-0.41,0.126-0.607c0.083-0.197,0.215-0.375,0.392-0.533c0.167-0.148,0.355-0.249,0.563-0.304
		c0.207-0.055,0.424-0.081,0.652-0.081c0.345,0,0.637,0.03,0.874,0.089l0.252-1.881c-0.099-0.019-0.213-0.037-0.341-0.052
		C22.519,111.548,22.357,111.541,22.16,111.541z"/>
	<path fill="#1D1D1B" d="M58.219,117.627c-0.227,0.237-0.548,0.355-0.963,0.355c-0.315,0-0.578-0.067-0.785-0.2
		s-0.37-0.314-0.489-0.541s-0.201-0.489-0.252-0.785c-0.049-0.296-0.074-0.607-0.074-0.933c0-0.315,0.025-0.619,0.074-0.911
		c0.05-0.292,0.136-0.551,0.259-0.777c0.124-0.227,0.289-0.407,0.496-0.541c0.207-0.133,0.469-0.2,0.785-0.2
		c0.435,0,0.74,0.121,0.918,0.363c0.178,0.241,0.292,0.56,0.341,0.955l2.088-0.281c-0.049-0.395-0.148-0.758-0.296-1.089
		s-0.355-0.615-0.622-0.852c-0.267-0.237-0.594-0.422-0.985-0.555c-0.389-0.133-0.846-0.2-1.37-0.2
		c-0.612,0-1.155,0.099-1.629,0.296c-0.474,0.197-0.874,0.477-1.2,0.837s-0.575,0.795-0.748,1.303
		c-0.172,0.508-0.259,1.069-0.259,1.681c0,0.612,0.074,1.17,0.222,1.673c0.148,0.504,0.373,0.933,0.674,1.288
		c0.302,0.355,0.689,0.632,1.162,0.829c0.474,0.197,1.037,0.296,1.688,0.296c1.117,0,1.953-0.274,2.51-0.822
		c0.558-0.548,0.877-1.285,0.955-2.214h-2.103C58.58,117.05,58.447,117.39,58.219,117.627z"/>
	<path fill="#1D1D1B" d="M90.695,111.541c-0.404,0-0.789,0.101-1.155,0.304c-0.364,0.203-0.675,0.506-0.933,0.911v-1.081h-2.014
		v7.73h2.073v-4.472c0-0.207,0.043-0.41,0.126-0.607c0.084-0.197,0.215-0.375,0.392-0.533c0.169-0.148,0.355-0.249,0.563-0.304
		s0.425-0.081,0.652-0.081c0.346,0,0.637,0.03,0.874,0.089l0.252-1.881c-0.098-0.019-0.212-0.037-0.341-0.052
		C91.057,111.548,90.894,111.541,90.695,111.541z"/>
	<path fill="#1D1D1B" d="M98.433,112.266c-0.252-0.267-0.585-0.471-1-0.615c-0.415-0.144-0.918-0.215-1.51-0.215
		c-0.967,0-1.737,0.181-2.31,0.541s-0.929,0.945-1.066,1.755l1.896,0.178c0.118-0.622,0.588-0.933,1.407-0.933
		c0.355,0,0.663,0.089,0.926,0.267c0.262,0.178,0.392,0.503,0.392,0.977v0.385l-0.992,0.044c-0.493,0.019-0.98,0.07-1.459,0.148
		s-0.911,0.212-1.296,0.4c-0.385,0.188-0.696,0.449-0.933,0.785c-0.237,0.336-0.355,0.77-0.355,1.303
		c0,0.404,0.07,0.752,0.207,1.044c0.138,0.292,0.323,0.53,0.555,0.718c0.232,0.188,0.503,0.326,0.815,0.415
		c0.311,0.089,0.64,0.133,0.985,0.133c0.603,0,1.093-0.108,1.474-0.326c0.381-0.218,0.723-0.499,1.029-0.844v0.977h1.955v-4.887
		c0-0.474-0.056-0.9-0.17-1.281C98.867,112.856,98.685,112.533,98.433,112.266z M97.152,116.354c0,0.315-0.059,0.581-0.178,0.792
		c-0.119,0.212-0.271,0.388-0.459,0.526c-0.336,0.247-0.77,0.37-1.303,0.37c-0.315,0-0.563-0.074-0.74-0.222
		c-0.178-0.148-0.267-0.351-0.267-0.607c0-0.167,0.025-0.321,0.074-0.459c0.049-0.138,0.145-0.259,0.289-0.363
		c0.144-0.104,0.348-0.19,0.615-0.259c0.267-0.07,0.618-0.114,1.051-0.133l0.918-0.044V116.354z"/>
	<path fill="#1D1D1B" d="M13.926,116.324c0,0.227-0.047,0.437-0.141,0.629c-0.093,0.193-0.219,0.358-0.378,0.496
		c-0.158,0.148-0.323,0.262-0.496,0.341s-0.392,0.118-0.659,0.118c-0.345,0-0.618-0.096-0.815-0.289s-0.296-0.566-0.296-1.118
		v-4.828H9.068v5.109c0,0.988,0.207,1.71,0.622,2.17s1.062,0.689,1.94,0.689c0.455,0,0.881-0.104,1.281-0.311
		s0.758-0.538,1.074-0.992v1.066h2.014v-7.73h-2.073V116.324z"/>
	<rect x="169.732" y="108.83" fill="#1D1D1B" width="2.133" height="1.866"/>
	<path fill="#1D1D1B" d="M157.463,112.525c-0.341-0.351-0.754-0.619-1.237-0.807c-0.484-0.188-1.028-0.281-1.629-0.281
		c-0.592,0-1.131,0.093-1.614,0.281c-0.484,0.188-0.896,0.456-1.237,0.807c-0.341,0.351-0.603,0.78-0.785,1.288
		c-0.184,0.508-0.274,1.078-0.274,1.71c0,1.322,0.341,2.34,1.022,3.051c0.681,0.711,1.644,1.066,2.888,1.066
		c0.592,0,1.13-0.093,1.614-0.281c0.483-0.188,0.896-0.459,1.237-0.815c0.341-0.355,0.601-0.788,0.785-1.296
		c0.182-0.508,0.274-1.084,0.274-1.725c0-0.632-0.089-1.203-0.267-1.71S157.803,112.876,157.463,112.525z M155.923,117.346
		c-0.292,0.425-0.733,0.637-1.325,0.637c-0.603,0-1.047-0.21-1.333-0.629c-0.287-0.419-0.43-1.029-0.43-1.829
		c0-0.789,0.145-1.392,0.437-1.807c0.29-0.415,0.733-0.622,1.325-0.622c0.592,0,1.034,0.207,1.325,0.622
		c0.29,0.415,0.437,1.017,0.437,1.807C156.359,116.314,156.213,116.921,155.923,117.346z"/>
	<rect x="169.762" y="111.674" fill="#1D1D1B" width="2.073" height="7.73"/>
	<path fill="#1D1D1B" d="M165.66,112.548c-0.326-0.425-0.683-0.715-1.071-0.874c-0.389-0.158-0.791-0.237-1.204-0.237
		c-0.523,0-0.992,0.096-1.411,0.289c-0.418,0.193-0.77,0.459-1.056,0.8c-0.286,0.341-0.505,0.748-0.658,1.222
		s-0.228,0.992-0.228,1.555c0,1.185,0.268,2.128,0.807,2.829c0.538,0.701,1.349,1.051,2.436,1.051c0.503,0,0.955-0.096,1.355-0.292
		c0.4-0.194,0.727-0.48,0.985-0.859l-0.015,0.238c0,0.327-0.013,0.644-0.037,0.951c-0.025,0.307-0.089,0.579-0.193,0.817
		c-0.104,0.238-0.265,0.428-0.481,0.573c-0.218,0.142-0.518,0.215-0.903,0.215c-0.247,0-0.458-0.012-0.629-0.037
		c-0.173-0.025-0.321-0.071-0.444-0.141c-0.124-0.07-0.222-0.163-0.296-0.281s-0.132-0.277-0.17-0.474h-2.103
		c0.049,0.425,0.15,0.797,0.304,1.118c0.153,0.321,0.372,0.588,0.659,0.8c0.286,0.212,0.649,0.37,1.089,0.474
		c0.438,0.104,0.97,0.156,1.592,0.156c0.671,0,1.242-0.092,1.713-0.274c0.471-0.182,0.853-0.452,1.146-0.807
		s0.506-0.788,0.641-1.296c0.133-0.508,0.201-1.089,0.201-1.74v-6.649h-2.029V112.548z M165.615,115.472
		c0,0.373-0.044,0.692-0.133,0.952c-0.089,0.261-0.212,0.471-0.369,0.634s-0.347,0.28-0.567,0.354
		c-0.222,0.074-0.459,0.111-0.715,0.111c-0.462,0-0.849-0.17-1.158-0.509c-0.31-0.339-0.464-0.917-0.464-1.734
		c0-0.384,0.044-0.714,0.132-0.989c0.089-0.275,0.209-0.501,0.361-0.678s0.33-0.305,0.532-0.384s0.415-0.118,0.641-0.118
		c0.206,0,0.413,0.025,0.619,0.074c0.206,0.049,0.392,0.15,0.56,0.302s0.304,0.372,0.406,0.658c0.104,0.284,0.156,0.659,0.156,1.121
		V115.472z"/>
	<path fill="#1D1D1B" d="M6.506,108.712c-0.385,0-0.74,0.052-1.066,0.156s-0.61,0.264-0.852,0.481
		c-0.241,0.218-0.432,0.499-0.57,0.844c-0.138,0.345-0.207,0.755-0.207,1.229v0.252H2.597v1.614h1.214v6.116h2.073v-6.116h1.792
		v-1.614H5.884v-0.296c0-0.395,0.108-0.669,0.326-0.822c0.218-0.153,0.459-0.23,0.726-0.23c0.286,0,0.588,0.04,0.903,0.119
		l0.281-1.511c-0.286-0.089-0.566-0.148-0.837-0.178C7.013,108.727,6.754,108.712,6.506,108.712z"/>
	<rect x="10.105" y="108.549" fill="#1D1D1B" width="1.925" height="1.851"/>
	<path fill="#1D1D1B" d="M135.634,117.872c-0.144,0.015-0.284,0.022-0.422,0.022c-0.267,0-0.484-0.071-0.652-0.215
		c-0.169-0.144-0.252-0.418-0.252-0.822v-3.569h1.777v-1.614h-1.777v-2.058h-2.073v2.058h-1.214v1.614h1.214v3.613
		c0,0.958,0.204,1.639,0.615,2.044c0.409,0.404,1.038,0.607,1.888,0.607c0.246,0,0.505-0.018,0.777-0.052
		c0.271-0.034,0.549-0.096,0.837-0.185l-0.296-1.525C135.917,117.83,135.776,117.857,135.634,117.872z"/>
	<rect x="13.096" y="108.549" fill="#1D1D1B" width="1.925" height="1.851"/>
	<rect x="146.807" y="108.83" fill="#1D1D1B" width="2.073" height="10.574"/>
	<path fill="#1D1D1B" d="M143.957,112.525c-0.341-0.351-0.754-0.619-1.237-0.807c-0.484-0.188-1.028-0.281-1.629-0.281
		c-0.592,0-1.131,0.093-1.614,0.281c-0.484,0.188-0.896,0.456-1.237,0.807c-0.341,0.351-0.603,0.78-0.785,1.288
		c-0.184,0.508-0.274,1.078-0.274,1.71c0,1.322,0.341,2.34,1.022,3.051c0.681,0.711,1.644,1.066,2.888,1.066
		c0.592,0,1.13-0.093,1.614-0.281c0.483-0.188,0.896-0.459,1.237-0.815c0.341-0.355,0.601-0.788,0.785-1.296
		c0.182-0.508,0.274-1.084,0.274-1.725c0-0.632-0.089-1.203-0.267-1.71C144.557,113.306,144.297,112.876,143.957,112.525z
		 M142.417,117.346c-0.292,0.425-0.733,0.637-1.325,0.637c-0.603,0-1.047-0.21-1.333-0.629c-0.287-0.419-0.429-1.029-0.429-1.829
		c0-0.789,0.145-1.392,0.437-1.807c0.29-0.415,0.733-0.622,1.325-0.622s1.034,0.207,1.325,0.622c0.29,0.415,0.437,1.017,0.437,1.807
		C142.853,116.314,142.707,116.921,142.417,117.346z"/>
	<path fill="#1D1D1B" d="M177.506,111.437c-0.572,0-1.096,0.092-1.568,0.274c-0.475,0.182-0.883,0.452-1.222,0.807
		c-0.342,0.355-0.606,0.788-0.794,1.296c-0.187,0.508-0.281,1.089-0.281,1.74c0,1.303,0.324,2.31,0.97,3.021
		c0.647,0.711,1.613,1.066,2.895,1.066c1.066,0,1.879-0.225,2.438-0.674c0.557-0.449,0.905-1.108,1.044-1.977h-2.014
		c-0.15,0.692-0.632,1.037-1.453,1.037c-0.592,0-1.037-0.175-1.333-0.526c-0.295-0.351-0.453-0.837-0.474-1.459h5.362v-0.829
		c0-1.155-0.299-2.073-0.896-2.755C179.582,111.778,178.692,111.437,177.506,111.437z M175.743,114.68
		c0.01-0.237,0.055-0.456,0.133-0.659c0.08-0.203,0.191-0.381,0.333-0.533c0.144-0.153,0.318-0.274,0.526-0.363
		c0.207-0.089,0.45-0.133,0.726-0.133c0.554,0,0.961,0.148,1.222,0.444c0.262,0.296,0.392,0.711,0.392,1.244H175.743z"/>
	<path fill="#1D1D1B" d="M20.027,97.353h-2.103c-0.04,0.444-0.173,0.785-0.4,1.022c-0.228,0.237-0.548,0.355-0.963,0.355
		c-0.317,0-0.578-0.067-0.785-0.2c-0.207-0.133-0.37-0.314-0.489-0.541s-0.203-0.489-0.252-0.785
		c-0.05-0.296-0.074-0.607-0.074-0.933c0-0.315,0.024-0.619,0.074-0.911c0.049-0.292,0.135-0.551,0.259-0.777
		c0.123-0.227,0.289-0.407,0.496-0.541c0.207-0.133,0.468-0.2,0.785-0.2c0.434,0,0.74,0.121,0.918,0.363
		c0.178,0.241,0.29,0.56,0.341,0.955l2.088-0.281c-0.05-0.395-0.148-0.758-0.296-1.089c-0.148-0.33-0.355-0.615-0.622-0.852
		c-0.267-0.237-0.595-0.422-0.985-0.555c-0.391-0.133-0.847-0.2-1.37-0.2c-0.613,0-1.155,0.099-1.629,0.296
		c-0.474,0.197-0.874,0.477-1.2,0.837s-0.576,0.795-0.748,1.303c-0.173,0.508-0.259,1.069-0.259,1.681
		c0,0.612,0.074,1.17,0.222,1.673c0.148,0.504,0.372,0.933,0.674,1.288c0.301,0.355,0.689,0.632,1.163,0.829
		s1.037,0.296,1.688,0.296c1.115,0,1.952-0.274,2.51-0.822C19.629,99.019,19.947,98.282,20.027,97.353z"/>
	<path fill="#1D1D1B" d="M128.681,90.363v2.058h-1.214v1.614h1.214v3.613c0,0.958,0.204,1.639,0.615,2.044
		c0.409,0.404,1.038,0.607,1.888,0.607c0.246,0,0.505-0.018,0.777-0.052c0.271-0.034,0.549-0.096,0.837-0.185l-0.296-1.525
		c-0.139,0.04-0.28,0.067-0.422,0.081c-0.144,0.015-0.284,0.022-0.422,0.022c-0.267,0-0.484-0.071-0.652-0.215
		c-0.169-0.144-0.252-0.418-0.252-0.822v-3.569h1.777v-1.614h-1.777v-2.058H128.681z"/>
	<polygon fill="#1D1D1B" points="61.345,93.829 61.345,92.422 55.021,92.422 55.021,94.036 58.709,94.036 54.947,98.745 
		54.947,100.152 61.33,100.152 61.523,98.538 57.598,98.538 	"/>
	<path fill="#1D1D1B" d="M8.757,98.16c-0.148,0.123-0.341,0.222-0.578,0.296s-0.529,0.111-0.874,0.111
		c-0.721,0-1.266-0.148-1.636-0.444c-0.37-0.296-0.581-0.77-0.629-1.422H2.804c0.059,1.244,0.471,2.174,1.237,2.792
		c0.766,0.618,1.869,0.926,3.31,0.926c0.692,0,1.293-0.081,1.807-0.244c0.514-0.163,0.94-0.39,1.281-0.681
		c0.341-0.292,0.597-0.632,0.77-1.022c0.173-0.39,0.259-0.818,0.259-1.281c0-0.958-0.267-1.691-0.8-2.199
		c-0.533-0.508-1.373-0.877-2.518-1.103l-1.451-0.281c-0.533-0.108-0.911-0.262-1.133-0.459c-0.222-0.197-0.333-0.493-0.333-0.889
		c0-0.148,0.03-0.292,0.089-0.429c0.059-0.138,0.163-0.259,0.311-0.363c0.148-0.104,0.344-0.188,0.585-0.252
		c0.241-0.064,0.551-0.096,0.926-0.096c0.632,0,1.103,0.129,1.414,0.385c0.311,0.256,0.521,0.677,0.629,1.259l2.088-0.267
		c-0.049-0.415-0.151-0.815-0.304-1.2c-0.153-0.385-0.388-0.723-0.703-1.014c-0.315-0.292-0.73-0.526-1.244-0.703
		c-0.514-0.178-1.155-0.267-1.925-0.267c-0.603,0-1.155,0.067-1.659,0.2c-0.504,0.133-0.936,0.329-1.296,0.585
		c-0.36,0.256-0.641,0.578-0.844,0.963c-0.203,0.385-0.304,0.829-0.304,1.333s0.074,0.937,0.222,1.303
		c0.148,0.366,0.363,0.674,0.644,0.926c0.281,0.252,0.629,0.456,1.044,0.615s0.893,0.286,1.436,0.385l1.377,0.252
		c0.552,0.108,0.933,0.284,1.14,0.526s0.311,0.501,0.311,0.777c0,0.197-0.033,0.381-0.096,0.548
		C9.012,97.891,8.905,98.037,8.757,98.16z"/>
	<path fill="#1D1D1B" d="M124.135,99.086v1.066h2.014v-7.73h-2.073v4.65c0,0.227-0.047,0.437-0.141,0.629
		c-0.095,0.193-0.221,0.358-0.378,0.496c-0.159,0.148-0.324,0.262-0.496,0.341c-0.173,0.078-0.392,0.118-0.659,0.118
		c-0.346,0-0.618-0.096-0.815-0.289c-0.198-0.193-0.296-0.566-0.296-1.118v-4.828h-2.073v5.109c0,0.988,0.207,1.711,0.622,2.17
		c0.415,0.459,1.06,0.689,1.94,0.689c0.453,0,0.881-0.104,1.281-0.311C123.461,99.871,123.818,99.541,124.135,99.086z"/>
	<path fill="#1D1D1B" d="M66.424,92.185c-0.573,0-1.096,0.092-1.57,0.274c-0.474,0.182-0.881,0.452-1.222,0.807
		c-0.341,0.355-0.606,0.788-0.792,1.296c-0.188,0.508-0.281,1.089-0.281,1.74c0,1.303,0.323,2.31,0.97,3.021
		c0.646,0.711,1.611,1.066,2.895,1.066c1.066,0,1.878-0.225,2.436-0.674c0.557-0.449,0.905-1.108,1.044-1.977h-2.014
		c-0.148,0.692-0.632,1.037-1.451,1.037c-0.592,0-1.037-0.175-1.333-0.526c-0.296-0.351-0.455-0.837-0.474-1.459h5.361v-0.829
		c0-1.155-0.299-2.073-0.896-2.755C68.499,92.526,67.609,92.185,66.424,92.185z M64.662,95.428c0.009-0.237,0.053-0.456,0.133-0.659
		c0.078-0.203,0.19-0.381,0.333-0.533c0.142-0.153,0.318-0.274,0.526-0.363c0.207-0.089,0.449-0.133,0.726-0.133
		c0.552,0,0.96,0.148,1.222,0.444c0.261,0.296,0.392,0.711,0.392,1.244H64.662z"/>
	<path fill="#1D1D1B" d="M71.769,92.422v7.73h2.073V95.68c0-0.207,0.043-0.41,0.126-0.607c0.084-0.197,0.215-0.375,0.392-0.533
		c0.169-0.148,0.355-0.249,0.563-0.304s0.425-0.081,0.652-0.081c0.346,0,0.637,0.03,0.874,0.089l0.252-1.881
		c-0.098-0.019-0.212-0.037-0.341-0.052c-0.127-0.015-0.29-0.022-0.489-0.022c-0.404,0-0.789,0.101-1.155,0.304
		c-0.364,0.203-0.675,0.506-0.933,0.911v-1.081H71.769z"/>
	<path fill="#1D1D1B" d="M49.379,95.961c0-1.155-0.299-2.073-0.896-2.755c-0.598-0.681-1.488-1.022-2.673-1.022
		c-0.573,0-1.096,0.092-1.57,0.274s-0.881,0.452-1.222,0.807c-0.341,0.355-0.606,0.788-0.792,1.296
		c-0.188,0.508-0.281,1.089-0.281,1.74c0,1.303,0.323,2.31,0.97,3.021c0.646,0.711,1.611,1.066,2.895,1.066
		c1.066,0,1.878-0.225,2.436-0.674c0.557-0.449,0.905-1.108,1.044-1.977h-2.014c-0.148,0.692-0.632,1.037-1.451,1.037
		c-0.592,0-1.037-0.175-1.333-0.526s-0.455-0.837-0.474-1.459h5.361V95.961z M44.048,95.428c0.009-0.237,0.053-0.456,0.133-0.659
		c0.078-0.203,0.19-0.381,0.333-0.533c0.142-0.153,0.318-0.274,0.526-0.363c0.207-0.089,0.449-0.133,0.726-0.133
		c0.552,0,0.96,0.148,1.222,0.444c0.261,0.296,0.392,0.711,0.392,1.244H44.048z"/>
	<rect x="81.869" y="89.578" fill="#1D1D1B" width="2.207" height="10.574"/>
	<path fill="#1D1D1B" d="M107.333,98.62c-0.144,0.015-0.284,0.022-0.422,0.022c-0.267,0-0.484-0.071-0.652-0.215
		c-0.167-0.144-0.252-0.418-0.252-0.822v-3.569h1.777v-1.614h-1.777v-2.058h-2.073v2.058h-1.214v1.614h1.214v3.613
		c0,0.958,0.204,1.639,0.615,2.044s1.04,0.607,1.888,0.607c0.247,0,0.506-0.018,0.777-0.052c0.271-0.034,0.551-0.096,0.837-0.185
		l-0.296-1.525C107.618,98.578,107.477,98.605,107.333,98.62z"/>
	<path fill="#1D1D1B" d="M101.817,97.975c0-0.366-0.041-0.686-0.126-0.963s-0.233-0.515-0.444-0.718
		c-0.212-0.203-0.496-0.373-0.852-0.511c-0.355-0.138-0.804-0.252-1.348-0.341L98.07,95.28c-0.444-0.078-0.743-0.175-0.896-0.289
		c-0.153-0.114-0.23-0.293-0.23-0.541c0-0.078,0.022-0.163,0.067-0.252c0.044-0.089,0.118-0.167,0.222-0.237
		c0.104-0.07,0.247-0.126,0.429-0.17c0.182-0.044,0.412-0.067,0.689-0.067c0.493,0,0.852,0.084,1.074,0.252
		c0.222,0.167,0.378,0.429,0.466,0.785l1.851-0.237c-0.059-0.326-0.156-0.632-0.289-0.918c-0.133-0.286-0.33-0.533-0.592-0.74
		c-0.262-0.207-0.6-0.373-1.014-0.496c-0.415-0.123-0.929-0.185-1.54-0.185c-0.493,0-0.945,0.056-1.355,0.17
		c-0.41,0.114-0.763,0.274-1.059,0.481c-0.296,0.207-0.526,0.459-0.689,0.755c-0.163,0.296-0.244,0.632-0.244,1.007
		c0,0.73,0.23,1.277,0.689,1.636c0.459,0.36,1.158,0.615,2.096,0.763l1.066,0.178c0.375,0.059,0.629,0.163,0.763,0.311
		c0.133,0.148,0.2,0.321,0.2,0.518c0,0.277-0.107,0.477-0.318,0.6s-0.566,0.185-1.059,0.185c-0.415,0-0.77-0.07-1.066-0.207
		c-0.296-0.138-0.478-0.434-0.548-0.889h-1.984c0.03,0.523,0.151,0.958,0.363,1.303c0.212,0.345,0.484,0.622,0.815,0.829
		c0.33,0.207,0.706,0.352,1.125,0.437s0.862,0.126,1.325,0.126c1.155,0,2.01-0.219,2.562-0.659
		C101.54,99.29,101.817,98.705,101.817,97.975z"/>
	<rect x="109.281" y="89.578" fill="#1D1D1B" width="2.133" height="1.866"/>
	<rect x="51.141" y="89.578" fill="#1D1D1B" width="2.133" height="1.866"/>
	<rect x="51.171" y="92.422" fill="#1D1D1B" width="2.073" height="7.73"/>
	<rect x="109.31" y="92.422" fill="#1D1D1B" width="2.073" height="7.73"/>
	<path fill="#1D1D1B" d="M28.735,100.152v-5.109c0-0.988-0.213-1.711-0.637-2.17c-0.425-0.459-1.077-0.689-1.955-0.689
		c-0.444,0-0.869,0.099-1.274,0.296c-0.406,0.197-0.761,0.503-1.066,0.918v-3.821H21.73v10.574h2.073v-4.65
		c0-0.227,0.046-0.437,0.141-0.629c0.093-0.193,0.209-0.358,0.348-0.496c0.167-0.148,0.348-0.262,0.541-0.341
		c0.193-0.078,0.422-0.118,0.689-0.118c0.345,0,0.622,0.099,0.829,0.296s0.311,0.567,0.311,1.111v4.828H28.735z"/>
	<path fill="#1D1D1B" d="M88.37,95.502c0-0.227,0.047-0.437,0.141-0.629c0.093-0.193,0.21-0.358,0.348-0.496
		c0.167-0.148,0.348-0.262,0.541-0.341c0.193-0.078,0.422-0.118,0.689-0.118c0.345,0,0.622,0.099,0.829,0.296
		s0.311,0.567,0.311,1.111v4.828h2.073v-5.109c0-0.988-0.212-1.711-0.637-2.17c-0.425-0.459-1.077-0.689-1.955-0.689
		c-0.455,0-0.891,0.104-1.311,0.311c-0.419,0.207-0.782,0.538-1.089,0.992v-1.066h-2.014v7.73h2.073V95.502z"/>
	<path fill="#1D1D1B" d="M113.931,90.363v2.058h-1.214v1.614h1.214v3.613c0,0.958,0.204,1.639,0.615,2.044
		c0.409,0.404,1.038,0.607,1.888,0.607c0.246,0,0.505-0.018,0.778-0.052c0.271-0.034,0.549-0.096,0.837-0.185l-0.296-1.525
		c-0.139,0.04-0.28,0.067-0.422,0.081c-0.144,0.015-0.284,0.022-0.422,0.022c-0.267,0-0.484-0.071-0.652-0.215
		c-0.169-0.144-0.252-0.418-0.252-0.822v-3.569h1.777v-1.614h-1.777v-2.058H113.931z"/>
	<polygon fill="#1D1D1B" points="41.16,92.422 38.998,92.422 37.917,97.546 36.51,92.481 34.703,92.481 33.222,97.546 
		32.141,92.422 29.89,92.422 32.141,100.152 34.125,100.152 35.518,95.058 36.895,100.152 38.909,100.152 	"/>
	<path fill="#FF7A00" d="M21.432,42.999h11.431c4.992,0,9.053,4.431,9.053,9.423c0,4.992-4.061,9.423-9.053,9.423L2.804,61.859
		V74.42c0,0,24.078,0.014,30.429,0c0.003,0,0.37,0.014,0.37,0.014c12.137,0,21.642-9.874,21.642-22.011
		c0-12.137-9.504-21.642-21.642-21.642H22.171c-4.877,0-8.844-4.337-8.844-9.213c0-4.877,3.965-8.983,8.842-8.983
		c7.736,0,29.094,0,29.094,0l0.002-12.557c0,0-22.098-0.024-29.834-0.027C9.41-0.005,0,9.546,0,21.568
		C0,33.589,9.41,42.999,21.432,42.999z"/>
</g>
</svg>
