<?xml version="1.0" encoding="UTF-8"?>
<svg xmlns="http://www.w3.org/2000/svg" xmlns:xlink="http://www.w3.org/1999/xlink" version="1.1" viewBox="0 0 400 345">
  <defs>
    <style>
      .cls-1 {
        fill: none;
      }

      .cls-2 {
        fill: #fff;
      }

      .cls-3 {
        fill: #ff7a00;
      }

      .cls-4 {
        fill: #ff7a00;
      }

      .cls-5 {
        clip-path: url(#clippath);
      }
    </style>
    <clipPath id="clippath">
      <rect class="cls-1" x="84.2" y="75.2" width="67.3" height="46"/>
    </clipPath>
  </defs>
  <!-- Generator: Adobe Illustrator 28.7.1, SVG Export Plug-In . SVG Version: 1.2.0 Build 142)  -->
  <g>
    <g id="Ebene_1">
      <polygon class="cls-2" points="0 81.3 314.2 345 317.3 345 0 78.7 0 81.3"/>
      <polygon class="cls-2" points="0 185.8 189.8 345 192.9 345 0 183.2 0 185.8"/>
      <polygon class="cls-2" points="0 60.4 339.1 345 342.2 345 0 57.8 0 60.4"/>
      <polygon class="cls-2" points="0 123.1 264.4 345 267.6 345 0 120.5 0 123.1"/>
      <polygon class="cls-2" points="0 164.9 214.7 345 217.8 345 0 162.3 0 164.9"/>
      <polygon class="cls-2" points="0 144 239.5 345 242.7 345 0 141.4 0 144"/>
      <polygon class="cls-2" points="0 206.7 164.9 345 168 345 0 204 0 206.7"/>
      <polygon class="cls-2" points="0 102.2 289.3 345 292.4 345 0 99.6 0 102.2"/>
      <polygon class="cls-2" points="0 18.7 388.9 345 392 345 0 16.1 0 18.7"/>
      <polygon class="cls-2" points="0 227.5 140 345 143.1 345 0 224.9 0 227.5"/>
      <polygon class="cls-2" points="0 39.6 364 345 367.1 345 0 37 0 39.6"/>
      <polygon class="cls-3" points="0 162.3 217.8 345 239.5 345 0 144 0 162.3"/>
      <polygon class="cls-3" points="0 141.4 242.7 345 264.4 345 0 123.1 0 141.4"/>
      <polygon class="cls-3" points="0 183.2 192.9 345 214.7 345 0 164.9 0 183.2"/>
      <polygon class="cls-3" points="0 204 168 345 189.8 345 0 185.8 0 204"/>
      <polygon class="cls-3" points="0 224.9 143.1 345 164.9 345 0 206.7 0 224.9"/>
      <polygon class="cls-3" points="0 120.5 267.6 345 289.3 345 0 102.2 0 120.5"/>
      <polygon class="cls-3" points="0 57.8 342.2 345 364 345 0 39.6 0 57.8"/>
      <polygon class="cls-3" points="0 0 0 16.1 392 345 400 345 400 0 0 0"/>
      <polygon class="cls-3" points="0 345 140 345 0 227.5 0 345"/>
      <polygon class="cls-3" points="0 37 367.1 345 388.9 345 0 18.7 0 37"/>
      <polygon class="cls-3" points="0 99.6 292.4 345 314.2 345 0 81.3 0 99.6"/>
      <polygon class="cls-3" points="0 78.7 317.3 345 339.1 345 0 60.4 0 78.7"/>
      <path class="cls-2" d="M65.5,145.8l-1.2-1.6-1.5-1.5-5.7,5.3.6.8,1.1,1.3,1.5,1.2c.5.3,1.1.4,1.7.5.5,0,1.1,0,1.6-.2.6-.2,1.1-.5,1.5-.9.5-.4.9-1,1.1-1.6.2-.5.2-1.1,0-1.6-.1-.6-.3-1.2-.7-1.7Z"/>
      <polygon class="cls-2" points="109.9 159.8 109.8 159.7 108.9 162.1 106.2 167.8 111.8 168.4 110.2 162.2 109.9 159.8"/>
      <path class="cls-2" d="M54.9,73.6c1,.6,2.2.6,3.2,0,1-.5,1.8-1.4,2.2-2.5.1-.3.2-.7.4-1,0-.3,0-.5.2-.8l-7.7-3.3-.8,1.9c-.5,1-.5,2.2,0,3.3.5,1.1,1.5,1.9,2.6,2.3Z"/>
      <path class="cls-2" d="M71.3,143.8c.8-.7,1.2-1.7,1.2-2.7,0-1.1-.5-2.1-1.3-2.8l-1.1-1.1-.7-.7-5.5,5.2.9,1,.8.8c.4.3.6.6.9.7.8.4,1.6.7,2.5.6.8,0,1.6-.4,2.3-1Z"/>
      <path class="cls-2" d="M116.6,6.5c-50,0-90.5,40.5-90.5,90.5s40.5,90.5,90.5,90.5,90.5-40.5,90.5-90.5c0-50-40.5-90.4-90.5-90.5ZM176.6,79.9l1.5-.2h2.7v.7l-3.8,2,.6,4.3,16.6-2.3c0-.5.1-1,.1-1.4,0-.4,0-.9.2-1.3h.8l1.1,7.8-.8.2-.6-1.2-.4-1.3-16.5,2,.6,4.3,4.2.9v.7l-1.3.3-1.4.3-1.5.3-1.2.2-2.2-16.2h1.3ZM165.6,97c0,27.1-21.9,49-49,49s-49-21.9-49-49,21.9-49,49-49,49,21.9,49,49ZM115.7,154.6c0,.4-.3.7-.6.9-.3.2-.7.3-1.1.2-.4,0-.8-.1-1.1-.4-.3-.3-.4-.6-.4-1,0-.5.2-.8.6-1,.3-.2.7-.3,1.1-.2.4,0,.8.1,1.1.4.3.3.4.7.4,1.1ZM109.4,154c0,.4-.2.7-.5.9-.4.2-.8.3-1.2.2-.4,0-.8-.1-1.1-.4-.3-.3-.4-.6-.3-1,0-.4.2-.8.5-1,.4-.2.8-.3,1.2-.2.4,0,.8.2,1.1.4.3.3.4.7.3,1.1ZM91.9,17.2c.3-.6.6-1.1,1-1.5.3-.4.8-.7,1.2-.9l.4.3c-.2.3-.4.6-.5,1-.1.4-.2.9-.2,1.3,0,.6,0,1.2,0,1.8.1.8.3,1.6.6,2.4l4.8,15.3h2.4l.3.8-6.9,2.1-.2-.8.9-.7.9-.6-4.7-15c-.4-1-.6-2.1-.5-3.2,0-.8,0-1.6.4-2.3ZM73.1,29.1l.5.7-.8.9-.9.8,4.3,3.5,5.7-3.5-1-5.4c-.8.3-1.6.6-2.5.7l-.4-.7,5.4-3.2.4.7c-.4.6-.9,1.1-1.4,1.6l3.5,19.5-.7.5-15.7-12.2-1.1.4h-1.1l-.4-.7,6.2-3.6ZM54.3,46l.6.5c-.2.7-.5,1.4-.9,2.1l6,5.1,5.8-6.7-6-5.1-.9.6-1,.5-.6-.5,4.6-5.4.7.5c-.3.8-.6,1.5-1,2.2l12.6,10.9c.6-.5,1.3-1,2.1-1.3l.6.5-4.7,5.4-.6-.5c0-.4.2-.8.4-1.1.1-.3.3-.7.5-1l-5.6-4.8-5.8,6.7,5.6,4.8,1-.6.9-.5.6.5-4.6,5.4-.6-.5c0-.4.2-.8.4-1.1.1-.4.3-.8.5-1.1l-12.6-10.9-1,.8-1,.5-.6-.5,4.6-5.4ZM40.7,70l1.2-.7,2.3-.5,2.2-.4,2.3-.2h2.3l1-2.4-6.6-2.9-.8,1.1-.8.9-.7-.4,2.9-6.9.7.4v1.2c-.1.4-.2.8-.2,1.2l15.3,6.5c.2-.4.5-.8.8-1.1l.8-.8.7.3-1,2.3c-.3.7-.5,1.5-.8,2.3l-.9,2.5c-.4.8-.8,1.5-1.3,2.2-.5.7-1.1,1.2-1.8,1.6-.7.3-1.4.5-2.1.5-.9,0-1.7-.1-2.5-.5-1.1-.5-2.1-1.3-2.7-2.3-.5-1.1-.7-2.3-.6-3.5l-4.5.9-4.5,1-1.4,1.1-.6-.2,1.3-3.2ZM37.9,79.3h.9c.2.8.3,1.6.3,2.4l16.6,2c0-.4.3-.7.4-1.1l.6-1.1h.8l-1.6,13.4-2.3-.3-2.2-.5v-.8l3.2-.7.7-6.1-7.4-.9-.5,4.5,2,1.4v.7c-1.8,0-3.7-.4-5.6-.7v-.7l2.2-.8.6-4.6-7.8-.9-.8,6.4,3.2,1.8v.6c-.8.1-1.6.1-2.4,0l-2.4-.2,1.5-13.8ZM37.8,115.2c-.8,0-1.5-.3-2.2-.6-.5-.3-1-.7-1.4-1.2-.4-.3-.6-.7-.8-1.2l.3-.4c.3.3.6.5,1,.6.4.2.8.3,1.3.3h1.7l2.5-.4,15.6-3.6c0-.4,0-.8,0-1.2,0-.4,0-.8,0-1.2l.8-.2,1.6,7-.8.2-.6-.9-.6-1-15.3,3.5c-1.1.3-2.2.4-3.3.3ZM50.8,136.3c-.8.1-1.7,0-2.5-.3-.8-.3-1.4-.7-2-1.3-.7-.7-1.2-1.4-1.6-2.3-1-1.6-1.4-3.6-1-5.5.6-1.7,1.9-3.1,3.6-3.8l10.7-5.3c-.3-.8-.4-1.6-.4-2.4l.7-.4,3.2,6.4-.7.4-.9-.8-.7-.8-10.3,5.1c-.8.3-1.5.8-2.1,1.4-.4.4-.8.9-1,1.5-.2.6-.2,1.2,0,1.8.2.7.4,1.4.7,2,.5,1.2,1.4,2.1,2.6,2.5,1.4.4,2.9.1,4.2-.6l10-5c0-.4-.1-.9,0-1.3v-1.1l.7-.4,2.7,5.4-.8.3-1-.7-.8-.8-10.1,5c-.9.5-2,.8-3,1ZM68.3,150.9c-.3.6-.7,1.2-1.2,1.7-.7.6-1.5,1.1-2.4,1.3-.8.2-1.7.2-2.5,0-.9-.3-1.7-.6-2.5-1.1-.7-.6-1.4-1.2-2.1-1.9l-1.5-1.6c-.4-.6-1-1.2-1.5-1.8l-1.9-2,.6-.6c.8.3,1.5.8,2.1,1.3l12.2-11.4-.6-1.1-.5-1.1.6-.6,2,2.2.8.7.7.8.8.8c.4.3.7.6,1,1,.5.5,1,1.1,1.4,1.8.5.6.8,1.3,1,2,.2.7.2,1.4,0,2.1-.2.8-.7,1.5-1.3,2-.4.4-.8.7-1.3.9l-1.4.4h-1.6c-.6-.1-1.2-.4-1.7-.7h0c.4.5.6,1,.8,1.6.2.5.4,1.1.4,1.7,0,.5-.1,1.1-.3,1.6h0ZM74.9,165l-6-4,.5-.7c.8,0,1.5.3,2.2.7l9.3-13.9-.8-.8c-.2-.4-.4-.7-.7-1l.5-.7,6,4-.5.7-1.1-.2-1.1-.4-9.4,13.8.9.9.6.9-.4.7ZM95.3,169.3c-.1.5-.3,1-.5,1.5s-.4,1-.5,1.5l-.6,1.3-13.1-5.2.3-.8h1.3l1.1.2,6.1-15.5-1-.8-.9-.8.3-.7,7.2,2.8-.3.8h-1.4l-1.4-.2-6.1,15.5,6,2.4,3.2-3.6.7.2c0,.4-.3.9-.4,1.4h0ZM118.4,177.1l-7.2-.7v-.8l1.1-.3h1.2l-1.4-5.3-6.6-.7-2.4,5,2.4.9v.8l-6.2-.6v-.9l2-.5,8.9-17.8h.8l5.3,19.1,1.1.4,1,.5v.9ZM138.9,170c-.2.8-.5,1.7-.9,2.4-.5.7-1.1,1.3-1.8,1.7-.8.4-1.7.7-2.6.9-2.3.5-4.1.4-5.5-.4s-2.4-2.3-2.9-4.4l-2.4-11.7c-.8,0-1.6,0-2.4-.2l-.2-.8,7-1.5v.8l-.9.6-1,.5,2.4,11.3c.1.8.4,1.6.8,2.3.3.6.7,1.1,1.3,1.4.5.3,1,.5,1.6.5.7,0,1.4,0,2.1-.1,1.3-.2,2.4-.9,3.1-2,.7-.9.8-2.3.4-4.1l-2.3-11-1.3-.2-1.1-.3v-.8l5.8-1.2.2.8-.9.8-1.1.6,2.4,11c.2,1,.3,2.1.2,3.1h0ZM162.4,162.3l-.4-.7.8-.9.8-.8-6.7-10.8-1.6-2.9-.2.2.8,3,2.7,15.3-.6.4-12.3-9.4-2.6-2.2h-.2l1.9,3,6.7,10.8,1-.4,1.1-.2.5.7-5,3.1-.5-.7.8-.9.8-.9-8.8-14.1-1.1.3-1.2.3-.4-.7,4.9-3.1,10.9,8.4,2.3,2h.1l-.8-3-2.4-13.5,4.3-2.7.4.7-.7.9-.7.9,8.7,14.2,1.1-.4,1.1-.2.4.7-5.9,3.6ZM185,138.1c-.2.9-.6,1.8-1.2,2.6-.6.9-1.3,1.8-2.1,2.5-.6.5-1.2.9-1.8,1.2l-.9-.7-1.1-.9-1.1-1-.8-.8.4-.6,4.1,1.3.9-.4c.4-.4.8-.8,1.1-1.3.3-.5.5-1,.7-1.5.2-.5.2-1,.2-1.5,0-.5-.2-1-.5-1.4-.3-.5-.6-.8-1.1-1.1-.5-.4-1.2-.6-1.9-.5l-2.1.7-2.2,1.3c-1.4,1-3.1,1.6-4.8,1.6-.9,0-1.8-.4-2.6-.9-.6-.4-1.2-.9-1.6-1.5-.4-.6-.6-1.2-.7-1.9,0-.7,0-1.4.2-2.1.2-.8.6-1.5,1-2.2.6-.9,1.2-1.7,1.9-2.4.5-.6,1.1-1.1,1.8-1.6l.9.7,1,.8,1,.9.8.8-.4.6-3.8-1.1c-.4.2-.7.5-1,.9-.4.4-.7.8-1,1.3-.5.7-.7,1.6-.6,2.4.3,1.6,1.8,2.6,3.4,2.4.7,0,1.5-.3,2.1-.7.8-.3,1.5-.7,2.2-1.2l2.4-1.2c.8-.3,1.6-.4,2.4-.4.9,0,1.8.3,2.6.8.7.4,1.3.9,1.7,1.6.4.6.6,1.4.7,2.1.1.8,0,1.6-.2,2.4h0ZM190.2,128.3l-.7-.3c0-.8,0-1.5.1-2.3l-15.5-6-.7,1-.8.9-.8-.3,2.6-6.7.8.2c0,.4,0,.8-.1,1.2,0,.4,0,.8-.1,1.2l15.6,5.9.7-1,.7-.8.8.3-2.6,6.7ZM194.9,115.1h-.8l-.3-1.2v-1.2l-16.6-2.3c-.1.4-.3.8-.4,1.2l-.6,1h-.8l.4-2.5c.1-.8.1-1.6.2-2.5,0-.8,0-1.7.2-2.5.2-.9.4-1.8.7-2.6.3-.8.7-1.6,1.3-2.2.6-.6,1.3-1.1,2.1-1.4,1-.3,2-.4,3-.2,1,.1,1.9.4,2.7,1,.7.5,1.3,1.2,1.7,2,.4.8.6,1.7.7,2.6.1.9.1,1.9,0,2.8,0,.2,0,.3-.1.5,0,.2,0,.4-.1.6,0,.2-.1.4-.1.6,0,.2-.1.3-.1.5l6.1.8c.1-.5.3-1,.5-1.4l.6-1.2.8.2-1.1,7.4Z"/>
      <path class="cls-2" d="M186.3,103.4c-.4-.5-.9-.9-1.4-1.3-.7-.3-1.4-.5-2.1-.6-1.3-.3-2.6,0-3.6.8-1,.9-1.5,2.1-1.6,3.4,0,.4-.1.7-.1,1.1-.1.3-.1.5,0,.8l9,1.3c0,0,.1-.3.1-.4,0-.2.1-.4.1-.6,0-.2.1-.4.1-.6,0-.1.1-.3.1-.4,0-.6,0-1.3,0-1.9,0-.6-.3-1.1-.6-1.6Z"/>
      <polygon class="cls-2" points="84 41.7 84.1 41.7 83.4 39.2 82.2 33 77.3 36 82.3 39.9 84 41.7"/>
      <path class="cls-3" d="M116.6,5.5c-50.5,0-91.5,41-91.5,91.5s41,91.5,91.5,91.5,91.5-41,91.5-91.5S167.1,5.5,116.6,5.5ZM116.6,187.5c-50,0-90.5-40.5-90.5-90.5S66.6,6.5,116.6,6.5s90.5,40.5,90.5,90.5c0,50-40.5,90.4-90.5,90.5Z"/>
      <path class="cls-2" d="M127.3,124.4c2.8,0,5.6-.4,8.2-1.3,2.4-.8,4.6-1.9,6.6-3.5,1.8-1.6,3.3-3.5,4.4-5.7,1.1-2.4,1.7-5,1.6-7.7,0-2.4-.4-4.7-1.2-6.9-.8-1.9-2.1-3.7-3.7-5.1-1.7-1.4-3.6-2.5-5.7-3.2-2.4-.7-4.9-1.1-7.4-1.1h-6.3l1.4-10.8h20.7c.3-.8.5-1.7.7-2.6.2-1.1.3-2.4.5-3.6l.3-3.7c0-1.2.1-2.2.1-3h-2.6l-3.6,4.2h-19.8l-3,27.7h6.6c1.7,0,3.3.2,4.9.6,1.5.4,2.9,1.1,4.1,2,1.2.8,2.2,2,2.8,3.3.7,1.4,1,3,1,4.6,0,1.5-.3,3.1-.8,4.5-.5,1.3-1.3,2.4-2.3,3.4-.9,1-2.1,1.8-3.3,2.3-1.4.5-2.8.7-4.3.7h-1.7l-1.4-.5c-.4-.5-.8-1-1.2-1.6l-1.4-1.8-1.5-1.7c-.3-.5-.8-1-1.2-1.4h-2.2l-3.2,7.5c4,3,8.9,4.6,13.9,4.6v-.2Z"/>
      <path class="cls-3" d="M96.7,37.7l-.9.6-.9.7.2.8,6.9-2.1-.3-.8h-2.4l-4.8-15.3c-.3-.8-.5-1.6-.6-2.4-.1-.6-.2-1.2,0-1.8,0-.4,0-.9.2-1.3.1-.4.3-.7.5-1l-.4-.3c-.4.2-.9.5-1.2.9-.4.4-.7.9-1,1.5-.3.7-.4,1.5-.4,2.3,0,1.1.1,2.2.5,3.2l4.7,15Z"/>
      <path class="cls-3" d="M68.4,33.4l1.1-.4,15.7,12.2.7-.5-3.5-19.5c.5-.5,1-1,1.4-1.6l-.4-.7-5.4,3.2.4.7c.9-.1,1.7-.4,2.5-.7l1,5.4-5.7,3.5-4.3-3.5.9-.8.8-.9-.5-.7-6.2,3.7.4.7h1.1ZM82.2,33l1.2,6.2.7,2.5h0l-1.7-1.8-5-3.9,4.8-3Z"/>
      <path class="cls-3" d="M51.3,51.4l1-.8,12.6,10.9c-.2.3-.4.7-.5,1.1-.2.3-.4.7-.4,1.1l.6.5,4.6-5.4-.6-.5-.9.5-1,.6-5.6-4.8,5.8-6.7,5.6,4.8c-.2.3-.4.7-.5,1-.2.3-.3.7-.4,1.1l.6.5,4.7-5.4-.6-.5c-.8.3-1.5.8-2.1,1.3l-12.6-10.9c.4-.7.7-1.4,1-2.2l-.7-.5-4.6,5.4.6.5,1-.5.9-.6,6,5.1-5.8,6.7-6-5.1c.4-.7.7-1.4.9-2.1l-.6-.5-4.6,5.4.6.5,1-.5Z"/>
      <path class="cls-3" d="M41.4,72.3l4.5-1,4.5-.9c-.1,1.2,0,2.4.6,3.5.6,1,1.6,1.8,2.7,2.3.8.4,1.6.6,2.5.5.7,0,1.4-.2,2.1-.5.7-.4,1.3-.9,1.8-1.6.5-.7.9-1.4,1.3-2.2l.9-2.5c.3-.8.5-1.6.8-2.3l1-2.3-.7-.3-.8.8c-.3.3-.6.7-.8,1.1l-15.3-6.5c0-.4,0-.8.2-1.2v-1.2l-.7-.4-2.9,6.9.7.3.8-.9.8-1.1,6.6,2.9-1,2.4h-2.3l-2.3.2-2.2.4-2.3.5-1.2.7-1.3,3.2.6.2,1.4-1ZM52.4,68l.8-1.9,7.7,3.3c0,.3,0,.5-.2.8-.2.3-.3.7-.4,1-.4,1.1-1.2,2-2.2,2.5-1,.5-2.2.5-3.2,0-1.1-.4-2.1-1.2-2.6-2.3-.4-1.1-.4-2.3,0-3.3Z"/>
      <path class="cls-3" d="M41.1,93.3v-.6l-3.2-1.8.8-6.4,7.8.9-.6,4.6-2.2.8v.7c1.9.3,3.8.6,5.6.7v-.7l-1.9-1.4.5-4.5,7.4.9-.7,6.1-3.2.7v.8l2.2.5,2.3.3,1.6-13.2h-.8l-.6,1c0,.4-.3.7-.4,1.1l-16.6-2c0-.8,0-1.6-.3-2.4h-.9l-1.6,13.7,2.4.2c.8.1,1.6.1,2.4,0Z"/>
      <path class="cls-3" d="M57,112.5l.6.9.8-.2-1.6-7-.8.2c0,.4-.1.8,0,1.2,0,.4-.1.8,0,1.2l-15.6,3.6-2.5.4h-1.7c-.5,0-.9,0-1.3-.3-.4-.1-.7-.3-1-.6l-.3.4c.2.5.4.9.8,1.2.4.5.9.9,1.4,1.2.7.3,1.4.5,2.2.6,1.1,0,2.2,0,3.3-.3l15.3-3.5.6,1Z"/>
      <path class="cls-3" d="M63.9,130.3l.8.8,1,.7.8-.3-2.7-5.4-.7.4v1.1c0,.4,0,.9,0,1.3l-10,5c-1.3.7-2.8,1-4.2.6-1.2-.4-2.1-1.3-2.6-2.5-.3-.6-.5-1.3-.7-2-.1-.6,0-1.2,0-1.8.2-.6.6-1.1,1-1.5.6-.6,1.3-1.1,2.1-1.4l10.3-5.1.7.8.9.8.7-.4-3.2-6.4-.7.4c0,.8.1,1.6.4,2.4l-10.7,5.3c-1.7.7-3,2.1-3.6,3.8-.4,1.9,0,3.9,1,5.5.4.9.9,1.6,1.6,2.3.6.6,1.2,1,2,1.3.8.3,1.7.4,2.5.3,1-.2,2.1-.5,3-1l10.1-5Z"/>
      <path class="cls-3" d="M67.4,145.9h0c.5.3,1.1.6,1.7.7h1.6l1.4-.4c.5-.2.9-.5,1.3-.9.6-.5,1.1-1.2,1.3-2,.2-.7.2-1.4,0-2.1-.2-.7-.5-1.4-1-2-.4-.7-.9-1.3-1.4-1.8-.3-.4-.6-.7-1-1l-.8-.8-.7-.8-.8-.7-2-2.2-.6.6.5,1.1.6,1.1-12.2,11.5c-.6-.5-1.3-1-2.1-1.3l-.6.6,1.9,2c.5.6,1.1,1.2,1.5,1.8l1.5,1.6c.7.7,1.4,1.3,2.1,1.9.8.5,1.6.8,2.5,1.1.8.2,1.7.2,2.5,0,.9-.2,1.7-.7,2.4-1.3.5-.5.9-1.1,1.2-1.7.2-.5.3-1.1.3-1.7,0-.6-.2-1.2-.4-1.7-.2-.6-.4-1.1-.8-1.6ZM66.2,149.1c-.2.6-.6,1.2-1.1,1.6-.4.4-.9.7-1.5.9-.5.2-1.1.2-1.6.2-.6,0-1.2-.2-1.7-.5l-1.5-1.2-1.1-1.3-.6-.8,5.7-5.3,1.5,1.5,1.2,1.6c.4.5.6,1.1.7,1.7.1.5.1,1.1,0,1.6h0ZM66.5,144.2c-.3-.1-.5-.4-.9-.7l-.8-.8-.9-1,5.5-5.2.7.7,1.1,1.1c.8.7,1.2,1.7,1.3,2.8,0,1-.4,2-1.2,2.7-.7.6-1.5.9-2.3,1-.9,0-1.7-.2-2.5-.6Z"/>
      <path class="cls-3" d="M73.8,162.5l9.4-13.8,1.1.4,1.1.2.5-.7-6-4-.5.7c.3.3.5.6.7,1l.8.8-9.3,13.9c-.7-.4-1.4-.6-2.2-.7l-.5.7,6,4,.4-.7-.6-.9-.9-.9Z"/>
      <path class="cls-3" d="M91.8,171.3l-6-2.4,6.1-15.5,1.4.2h1.4l.3-.8-7.2-2.8-.3.7.9.8,1,.8-6.1,15.5-1.1-.2h-1.3l-.3.8,13.1,5.2.6-1.3c.1-.5.3-1,.5-1.5s.4-1,.5-1.5c0-.5.3-1,.4-1.4l-.7-.2-3.2,3.6Z"/>
      <path class="cls-3" d="M113.1,153.3c-.4.2-.5.5-.6,1,0,.4.1.7.4,1,.3.3.7.4,1.1.4.4,0,.8,0,1.1-.2.3-.2.6-.5.6-.9,0-.4-.1-.8-.4-1.1-.3-.3-.7-.4-1.1-.4-.4,0-.8,0-1.1.2Z"/>
      <path class="cls-3" d="M106.8,152.7c-.3.2-.5.6-.5,1,0,.4,0,.7.3,1,.3.3.7.4,1.1.4.4,0,.8,0,1.2-.2.3-.2.5-.5.5-.9.1-.4,0-.8-.3-1.1-.3-.2-.7-.4-1.1-.4-.4,0-.8,0-1.2.2Z"/>
      <path class="cls-3" d="M116.4,175.4l-5.3-19.1h-.8l-8.9,17.8-2,.5v.8l6.2.6v-.8l-2.4-.9,2.4-5,6.6.7,1.4,5.3h-1.2l-1.1.3v.8l7.2.7v-.8l-1-.5-1.1-.4ZM106.3,167.8l2.7-5.6.9-2.4h0l.3,2.4,1.7,6.2-5.6-.6Z"/>
      <path class="cls-3" d="M136.3,155.9l1.1-.6.9-.8-.2-.8-5.8,1.2v.8l1.1.3,1.3.2,2.3,11c.4,1.8.3,3.2-.4,4.1-.7,1.1-1.8,1.8-3.1,2-.7.1-1.4.2-2.1.1-.6,0-1.1-.2-1.6-.5-.6-.3-1-.8-1.3-1.4-.4-.7-.7-1.5-.8-2.3l-2.4-11.3,1-.5.9-.6v-.8l-7,1.5.2.8c.8.2,1.6.2,2.4.2l2.4,11.7c.5,2.1,1.4,3.6,2.9,4.4,1.5.8,3.2.9,5.5.4.9-.2,1.8-.5,2.6-.9.7-.4,1.3-1,1.8-1.7.4-.7.7-1.6.9-2.4,0-1,0-2.1-.2-3.1l-2.4-11Z"/>
      <path class="cls-3" d="M166.8,158.2l-1.1.4-8.7-14.2.7-.9.7-.9-.4-.7-4.3,2.7,2.4,13.5.8,3h-.1l-2.3-2-10.9-8.4-4.9,3.1.4.7,1.2-.3,1.1-.3,8.8,14.1-.8.9-.8.9.5.7,5-3.1-.5-.7-1.1.2-1,.4-6.7-10.8-1.9-3h.2l2.6,2.2,12.3,9.4.6-.4-2.7-15.3-.8-3,.2-.2,1.6,2.9,6.7,10.8-.8.8-.8.9.4.7,5.9-3.6-.4-.7-1.1.2Z"/>
      <path class="cls-3" d="M184.5,133.6c-.4-.7-1-1.2-1.7-1.6-.8-.5-1.7-.8-2.6-.8-.8,0-1.6.1-2.4.4l-2.4,1.2c-.7.5-1.4.9-2.2,1.2-.6.4-1.4.6-2.1.7-1.6.2-3.1-.8-3.4-2.4,0-.8.1-1.7.6-2.4.3-.5.6-.9,1-1.3.3-.4.6-.7,1-.9l3.8,1.1.4-.6-.8-.8-1-.9-1-.8-.9-.7c-.7.5-1.3,1-1.8,1.6-.7.7-1.3,1.5-1.9,2.4-.4.7-.8,1.4-1,2.2-.2.7-.2,1.4-.2,2.1,0,.7.3,1.3.7,1.9.4.6,1,1.1,1.6,1.5.8.5,1.7.9,2.6.9,1.7,0,3.4-.6,4.8-1.6l2.2-1.3,2.1-.7c.7,0,1.4,0,1.9.5.5.3.8.6,1.1,1.1.3.4.4.9.5,1.4,0,.5,0,1-.2,1.5-.2.5-.4,1-.7,1.5-.3.5-.7.9-1.1,1.3l-.9.4-4.1-1.3-.4.6.8.8,1.1,1,1.1.9.9.7c.6-.3,1.2-.7,1.8-1.2.8-.7,1.5-1.6,2.1-2.5.6-.8,1-1.7,1.2-2.6.3-.8.3-1.6.2-2.4,0-.7-.3-1.5-.7-2.1Z"/>
      <path class="cls-3" d="M191.3,122.1l-.7,1-15.6-5.9c0-.4.1-.8.1-1.2,0-.4.1-.8.1-1.2l-.8-.2-2.6,6.7.8.3.8-.9.7-1,15.5,6c-.1.8-.2,1.5-.1,2.3l.7.3,2.6-6.7-.8-.3-.7.8Z"/>
      <path class="cls-3" d="M194.6,108.5c-.2.4-.4.9-.5,1.4l-6.1-.8c0-.2,0-.3.1-.5,0-.2.1-.4.1-.6,0-.2.1-.4.1-.6,0-.2,0-.3.1-.5.1-.9.1-1.9,0-2.8,0-.9-.3-1.8-.7-2.6-.4-.8-1-1.5-1.7-2-.8-.6-1.7-.9-2.7-1-1-.2-2-.1-3,.2-.8.3-1.5.8-2.1,1.4-.6.6-1,1.4-1.3,2.2-.3.8-.5,1.7-.7,2.6-.1.8-.2,1.7-.2,2.5-.1.9-.1,1.7-.2,2.5l-.4,2.5h.8l.6-1c.1-.4.3-.8.4-1.2l16.6,2.3v1.2l.3,1.2h.8l1.1-7.6-.8-.2-.6,1.4ZM186.9,106.9c0,.1,0,.3-.1.4,0,.2,0,.4-.1.6,0,.2,0,.4-.1.6,0,0-.1.3-.1.4l-9-1.3c-.1-.3-.1-.5,0-.8,0-.4,0-.7.1-1.1,0-1.3.6-2.5,1.6-3.4,1-.8,2.3-1.1,3.6-.8.7,0,1.4.3,2.1.6.5.4,1,.8,1.4,1.3.3.5.5,1,.6,1.6,0,.6,0,1.3,0,1.9Z"/>
      <path class="cls-3" d="M178.8,96l1.5-.3,1.4-.3,1.3-.3v-.7l-4.2-.9-.6-4.3,16.6-2.2.4,1.3.6,1.2.8-.2-1.2-7.8h-.8c-.1.4-.2.9-.2,1.3,0,.4-.1.9-.1,1.4l-16.6,2.3-.6-4.3,3.8-2v-.7h-2.8l-1.5.2h-1.2l2.2,16.2h1.2Z"/>
      <g>
        <path class="cls-2" d="M65.7,145.8c-.4-.5-.8-1.1-1.3-1.6l-1.4-1.5-5.7,5.3c.1.2.3.5.5.8.2.3.6.7,1.1,1.3.5.5,1,.9,1.5,1.2s1.1.5,1.7.5c.6,0,1.1,0,1.6-.2.5-.2,1-.5,1.5-.9.5-.5.9-1,1.1-1.6.2-.6.2-1.1,0-1.7-.1-.6-.4-1.1-.7-1.7Z"/>
        <polygon class="cls-2" points="110.1 159.8 110.1 159.8 109.1 162.2 106.4 167.8 112 168.4 110.4 162.2 110.1 159.8"/>
        <path class="cls-2" d="M55,73.6c1.3.5,2.4.6,3.3,0,.9-.5,1.6-1.3,2.1-2.5.2-.4.3-.8.4-1,0-.3.2-.5.2-.8l-7.7-3.3-.8,1.9c-.5,1.2-.5,2.3,0,3.3.5,1,1.3,1.8,2.5,2.3Z"/>
        <path class="cls-2" d="M71.4,143.8c.9-.8,1.3-1.8,1.3-2.7,0-1-.5-1.9-1.4-2.8-.4-.4-.7-.8-1-1.1-.3-.3-.5-.5-.8-.7l-5.5,5.2,1,1c.2.2.5.5.8.8.3.3.6.5.8.7.8.4,1.6.6,2.5.6.9,0,1.6-.4,2.3-1Z"/>
        <path class="cls-2" d="M116.8,6.5c-49.9,0-90.5,40.6-90.5,90.5s40.6,90.5,90.5,90.5,90.5-40.6,90.5-90.5S166.7,6.5,116.8,6.5ZM176.8,79.9c.5,0,.9,0,1.4-.1.5,0,1,0,1.5-.1s.9,0,1.3,0v.7c.1,0-3.7,2-3.7,2l.6,4.2,16.6-2.3c0-.5,0-1,0-1.4s.1-.9.2-1.3h.8c0-.1,1.1,7.7,1.1,7.7h-.8c-.2-.3-.4-.7-.6-1.1-.2-.4-.3-.8-.5-1.3l-16.6,2.3.6,4.3,4.2.9v.7c-.3.1-.7.2-1.2.3-.5.1-.9.2-1.4.3-.5,0-1,.2-1.4.3s-.9.2-1.3.2l-2.2-16.2c.4,0,.8,0,1.3-.1ZM165.8,97c0,27.1-21.9,49-49,49s-49-21.9-49-49,21.9-49,49-49,49,21.9,49,49ZM115.8,154.6c0,.4-.2.7-.5.9-.3.2-.7.3-1.2.2-.4,0-.8-.2-1.1-.4-.3-.3-.4-.6-.4-1,0-.4.2-.8.5-1,.3-.2.7-.3,1.2-.2.5,0,.8.2,1.1.4.3.3.4.6.4,1.1ZM109.6,154c0,.4-.2.7-.5.9-.3.2-.7.3-1.2.2-.5,0-.8-.2-1.1-.4s-.4-.6-.4-1c0-.4.2-.8.5-1,.3-.2.7-.3,1.2-.2.4,0,.8.2,1.1.4.3.3.4.6.4,1.1ZM92.1,17.2c.3-.6.6-1.1,1-1.5.4-.4.8-.7,1.1-.9l.4.3c-.2.3-.4.7-.5,1-.1.4-.2.8-.2,1.3s0,1.1.1,1.8c.1.7.3,1.5.6,2.4l4.8,15.3c.4,0,.8,0,1.2,0,.4,0,.8,0,1.2,0l.2.8-6.8,2.1-.2-.8c.3-.2.6-.5.9-.7.3-.2.6-.4,1-.6l-4.7-15c-.4-1.3-.6-2.3-.5-3.2,0-.9.2-1.7.4-2.3ZM73.3,29.1l.4.7c-.2.3-.5.6-.8.9-.3.3-.6.6-.8.8l4.3,3.4,5.7-3.5-1.1-5.4c-.7.3-1.5.5-2.4.7l-.4-.7,5.3-3.2.4.7c-.4.6-.9,1.1-1.4,1.6l3.5,19.5-.7.4-15.7-12.2c-.4.1-.7.2-1.1.4-.4.1-.7.2-1.1.2l-.4-.7,6.2-3.8ZM54.5,46l.6.5c-.2.7-.5,1.4-.9,2l6,5.1,5.8-6.7-6-5.1c-.3.2-.6.5-.9.6-.3.2-.6.4-1,.5l-.6-.5,4.6-5.4.6.5c-.3.8-.6,1.5-1,2.2l12.6,10.9c.7-.6,1.4-1,2-1.3l.6.5-4.6,5.4-.6-.5c0-.4.2-.7.3-1,.1-.3.3-.7.5-1l-5.6-4.8-5.8,6.7,5.6,4.8c.3-.2.6-.5,1-.6.3-.2.6-.4.9-.5l.6.5-4.6,5.4-.6-.5c0-.4.2-.8.4-1.1.2-.4.4-.7.6-1.1l-12.6-10.9c-.3.3-.7.5-1,.8-.3.2-.7.4-1,.6l-.6-.5,4.6-5.4ZM40.9,70l1.1-.7c.8-.2,1.6-.4,2.3-.6.7-.2,1.5-.3,2.2-.4s1.5-.2,2.2-.2c.7,0,1.5,0,2.3,0l1-2.4-6.7-2.8c-.3.4-.5.7-.8,1s-.5.6-.8.9l-.8-.3,2.9-6.8.8.3c0,.5,0,.9,0,1.3,0,.4-.1.8-.2,1.1l15.4,6.5c.3-.4.5-.8.8-1.1.3-.3.5-.6.7-.8l.8.3-1,2.3c-.3.7-.6,1.5-.9,2.3-.3.9-.6,1.7-.9,2.4-.4.8-.8,1.6-1.3,2.3-.5.7-1.1,1.2-1.7,1.5-.6.4-1.3.6-2.1.6-.8,0-1.6-.1-2.5-.5-1.3-.5-2.2-1.3-2.7-2.3-.5-1-.8-2.2-.6-3.5-1.5.2-3,.5-4.5.8-1.5.3-3,.7-4.5,1.1l-1.3,1.1-.6-.3,1.3-3.2ZM38.1,79.3h.8c.2.8.3,1.6.4,2.5l16.6,2c.1-.4.3-.7.4-1.1.2-.4.3-.7.5-1.1h.8c0,0-1.6,13.3-1.6,13.3-.7-.1-1.5-.2-2.2-.4-.7-.1-1.5-.3-2.3-.5v-.7c0,0,3.3-.8,3.3-.8l.7-6.1-7.4-.9-.6,4.6,1.9,1.3v.7c-1.9-.1-3.8-.3-5.7-.7v-.7c0,0,2.3-.8,2.3-.8l.6-4.6-7.8-1-.8,6.4,3.2,1.8v.7c-.9,0-1.7,0-2.5,0-.8,0-1.6-.1-2.4-.3l1.7-13.8ZM38,115.2c-.9-.1-1.6-.3-2.2-.6s-1.1-.7-1.4-1.1c-.3-.4-.6-.8-.8-1.2l.3-.4c.3.2.6.4,1,.6.4.2.8.3,1.3.3.5,0,1.1,0,1.8,0,.7,0,1.5-.2,2.4-.4l15.7-3.5c0-.4,0-.8,0-1.2,0-.4,0-.8.1-1.2l.8-.2,1.6,7-.8.2c-.2-.3-.4-.6-.6-.9-.2-.3-.4-.7-.5-1l-15.4,3.5c-1.3.3-2.4.4-3.3.3ZM51,136.3c-.9,0-1.8,0-2.5-.2-.8-.3-1.4-.7-2-1.3-.6-.6-1.1-1.4-1.6-2.3-1-2.1-1.4-3.9-1-5.5.4-1.6,1.6-2.9,3.5-3.8l10.7-5.3c-.2-.7-.4-1.5-.4-2.4l.7-.4,3.2,6.4-.7.4c-.3-.3-.6-.5-.8-.8-.3-.3-.5-.5-.8-.8l-10.3,5.1c-.9.4-1.6.9-2.1,1.4-.5.5-.8,1-1,1.6-.2.5-.2,1.1,0,1.8.1.6.3,1.3.7,2,.7,1.3,1.5,2.2,2.6,2.6,1.1.4,2.5.2,4.2-.7l10-5c0-.5,0-.9-.1-1.3,0-.4,0-.8,0-1.1l.7-.4,2.7,5.4-.7.4c-.3-.2-.7-.5-1-.7-.3-.3-.6-.5-.8-.8l-10.1,5c-1.1.5-2.1.8-3,.9ZM68.4,150.9c-.2.6-.6,1.1-1.2,1.7-.7.7-1.5,1.1-2.4,1.3-.8.2-1.7.2-2.5,0-.8-.2-1.6-.6-2.4-1.1-.8-.5-1.5-1.1-2.1-1.8-.4-.5-.9-1-1.5-1.7-.5-.6-1-1.2-1.6-1.8l-1.8-2,.6-.6c.8.3,1.5.7,2.1,1.2l12.2-11.4c-.2-.3-.4-.7-.6-1-.2-.4-.3-.7-.5-1.1l.6-.6,2,2.2c.2.3.5.5.7.7s.5.5.7.7c.3.2.5.5.8.8.3.3.6.6,1,1,.5.5,1,1.1,1.4,1.8.4.7.8,1.3.9,2,.2.7.2,1.4,0,2.1-.2.7-.6,1.4-1.3,2.1-.4.3-.8.6-1.2.8-.5.2-.9.4-1.5.4-.5,0-1.1,0-1.6,0s-1.1-.4-1.6-.7h0c.3.6.6,1.1.8,1.6.2.6.3,1.1.3,1.7,0,.6,0,1.2-.3,1.7ZM75,165l-6-4,.5-.7c.8.1,1.5.4,2.2.7l9.3-13.8c-.3-.3-.5-.6-.8-.9-.2-.3-.5-.6-.7-1l.5-.7,6,4-.5.7c-.4,0-.7-.2-1.1-.3-.4-.1-.8-.3-1.1-.4l-9.3,13.8c.3.3.6.6.8.9s.5.6.7.9l-.5.7ZM95.5,169.3c-.1.5-.3,1-.5,1.5-.2.5-.4,1-.6,1.5-.2.5-.4.9-.5,1.3l-13.1-5.2.3-.8c.5,0,.9,0,1.3,0,.4,0,.7.1,1.1.2l6.2-15.5c-.4-.2-.7-.5-1-.7-.3-.3-.6-.5-.8-.8l.3-.8,7.2,2.8-.3.8c-.5,0-1,0-1.4,0s-.9-.1-1.4-.3l-6.2,15.5,6,2.4,3.2-3.6.7.3c0,.4-.2.8-.4,1.3ZM118.6,177.1l-7.2-.7v-.8c.5-.1.9-.2,1.3-.3.4,0,.8-.1,1.2-.2l-1.4-5.3-6.7-.6-2.3,4.9c.8.2,1.6.5,2.3.9v.8c0,0-6.3-.6-6.3-.6v-.8c.8-.2,1.5-.4,2.2-.5l8.9-17.8h.8c0,0,5.3,19.2,5.3,19.2.4.1.7.2,1.1.4.4.1.7.3,1,.5v.8ZM139,170c-.1.9-.4,1.7-.9,2.4-.4.7-1,1.2-1.8,1.7s-1.6.8-2.6,1c-2.3.5-4.2.3-5.6-.4-1.4-.8-2.4-2.2-2.8-4.4l-2.5-11.7c-.8,0-1.6,0-2.4-.2l-.2-.8,7-1.5.2.8c-.3.2-.6.4-1,.6-.3.2-.7.4-1,.5l2.4,11.2c.2,1,.5,1.8.8,2.4.3.6.8,1.1,1.3,1.4s1,.5,1.7.5,1.3,0,2.1-.2c1.4-.3,2.5-.9,3.1-1.9.6-1,.8-2.4.4-4.2l-2.3-10.9c-.5,0-.9-.1-1.3-.2-.4,0-.8-.2-1.1-.3l-.2-.8,5.9-1.2.2.8c-.3.3-.6.5-.9.8-.3.2-.7.4-1,.6l2.3,11c.2,1.2.3,2.2.2,3.1ZM162.6,162.3l-.4-.7c.2-.3.5-.6.8-.9s.5-.6.8-.9l-6.7-10.8-1.6-2.9h-.2c0,.1.8,3.2.8,3.2l2.7,15.3-.6.4-12.3-9.4-2.6-2.3h-.2c0,.1,1.9,3.2,1.9,3.2l6.7,10.8c.3-.1.7-.2,1.1-.3.4,0,.7-.2,1.1-.2l.4.7-5,3.1-.4-.7c.2-.3.5-.6.7-.9.3-.3.5-.6.8-.9l-8.8-14.2c-.4.1-.8.3-1.1.4s-.8.2-1.2.3l-.4-.7,4.9-3,10.9,8.4,2.3,2h0s-.7-3-.7-3l-2.4-13.5,4.3-2.7.4.7c-.2.3-.4.6-.7.9-.2.3-.5.6-.8.8l8.8,14.2c.4-.1.7-.3,1.1-.4.3,0,.7-.2,1-.2l.4.7-5.9,3.6ZM185.2,138.1c-.2.9-.6,1.7-1.2,2.6-.6,1-1.3,1.8-2.1,2.4-.7.6-1.4,1-1.8,1.2-.3-.2-.6-.4-.9-.7-.4-.3-.7-.6-1.1-.9-.4-.3-.7-.6-1.1-.9s-.6-.6-.8-.8l.4-.6,4.1,1.3c.3,0,.6-.2,1-.4.3-.2.7-.6,1.1-1.2.3-.5.6-1,.7-1.5.2-.5.2-1,.2-1.5,0-.5-.2-1-.4-1.4-.2-.4-.6-.8-1.1-1.1-.6-.4-1.3-.6-2-.4-.7.1-1.4.3-2.1.7-.7.4-1.4.8-2.2,1.3-.8.5-1.5.9-2.3,1.2-.8.3-1.6.4-2.5.4-.9,0-1.7-.3-2.7-.9-.7-.4-1.2-.9-1.5-1.5-.4-.6-.6-1.2-.7-1.9,0-.7,0-1.4.2-2.1.2-.7.5-1.5,1-2.2.6-1,1.3-1.8,1.9-2.5.7-.7,1.3-1.2,1.8-1.5.3.2.6.4.9.7.3.3.7.6,1,.9.3.3.7.6,1,.9.3.3.6.6.8.8l-.4.6-3.8-1.1c-.3.2-.6.5-1,.9-.3.4-.7.8-1,1.3-.5.8-.7,1.6-.6,2.4.1.8.6,1.4,1.4,2,.6.4,1.3.6,2,.5.7-.1,1.4-.3,2.1-.7.7-.4,1.5-.8,2.2-1.2.8-.5,1.5-.9,2.3-1.2.8-.3,1.6-.5,2.5-.5s1.7.3,2.5.8c.7.5,1.3,1,1.7,1.6.4.6.7,1.3.8,2.1,0,.8,0,1.6-.2,2.4ZM190.4,128.3l-.8-.3c0-.8,0-1.6.2-2.3l-15.6-5.9c-.2.3-.4.6-.7.9-.2.3-.5.6-.8.9l-.8-.3,2.6-6.7.8.3c0,.4,0,.8,0,1.2,0,.4,0,.8-.1,1.2l15.6,5.9c.2-.3.4-.7.7-1,.2-.3.5-.6.7-.9l.8.3-2.6,6.7ZM195.1,115.1h-.8c-.1-.5-.2-.9-.3-1.3,0-.4,0-.8,0-1.2l-16.5-2.3c-.1.4-.3.8-.5,1.2-.2.4-.4.7-.6,1h-.8c0-.1.3-2.6.3-2.6.1-.7.2-1.6.2-2.4,0-.9.1-1.7.2-2.5.1-.9.3-1.8.7-2.6.3-.8.8-1.6,1.3-2.2.6-.6,1.3-1.1,2.1-1.4.8-.3,1.8-.4,3-.2,1.1.2,2,.5,2.7,1s1.3,1.2,1.7,2c.4.8.7,1.6.8,2.6.1.9,0,1.9,0,2.9,0,0,0,.2,0,.4,0,.2,0,.4-.1.6,0,.2,0,.4-.1.6,0,.2,0,.3-.1.4l6.2.9c.1-.5.3-1,.5-1.4s.4-.8.6-1.2h.8c0,.1-1.1,7.7-1.1,7.7Z"/>
        <path class="cls-2" d="M186.4,103.4c-.3-.5-.8-.9-1.3-1.3-.6-.3-1.3-.6-2.1-.7-1.5-.2-2.7,0-3.6.8-.9.8-1.4,1.9-1.6,3.4,0,.4-.1.8-.1,1.1,0,.3,0,.6,0,.8l9,1.3c0,0,0-.2.1-.4,0-.2,0-.4.1-.6,0-.2,0-.4.1-.6,0-.2,0-.3,0-.4,0-.6,0-1.3,0-1.9,0-.6-.3-1.1-.6-1.6Z"/>
        <polygon class="cls-2" points="84.2 41.7 84.3 41.7 83.6 39.2 82.4 33 77.5 36 82.5 39.9 84.2 41.7"/>
        <path class="cls-4" d="M116.8,5.5c-50.5,0-91.5,41-91.5,91.5s41,91.5,91.5,91.5,91.5-41,91.5-91.5S167.2,5.5,116.8,5.5ZM116.8,187.5c-49.9,0-90.5-40.6-90.5-90.5S66.9,6.5,116.8,6.5s90.5,40.6,90.5,90.5-40.6,90.5-90.5,90.5Z"/>
        <path class="cls-4" d="M96.9,37.7c-.3.2-.7.4-1,.6-.3.2-.6.5-.9.7l.2.8,6.8-2.1-.2-.8c-.4,0-.8,0-1.2,0-.4,0-.8,0-1.2,0l-4.8-15.3c-.3-.9-.5-1.7-.6-2.4-.1-.7-.2-1.3-.1-1.8s.1-.9.2-1.3c.1-.4.3-.7.5-1l-.4-.3c-.4.2-.7.5-1.1.9-.4.4-.7.9-1,1.5-.3.6-.4,1.4-.4,2.3,0,.9.1,2,.5,3.2l4.7,15Z"/>
        <path class="cls-4" d="M68.6,33.4c.4-.1.7-.2,1.1-.4l15.7,12.2.7-.4-3.5-19.5c.5-.5,1-1,1.4-1.6l-.4-.7-5.3,3.2.4.7c.9-.1,1.7-.4,2.4-.7l1.1,5.4-5.7,3.5-4.3-3.4c.3-.3.6-.5.8-.8.3-.3.5-.6.8-.9l-.4-.7-6.2,3.8.4.7c.4,0,.7,0,1.1-.2ZM82.4,33l1.2,6.2.7,2.5h0s-1.7-1.8-1.7-1.8l-5-4,4.8-2.9Z"/>
        <path class="cls-4" d="M51.4,51.4c.3-.2.7-.5,1-.8l12.6,10.9c-.2.3-.4.7-.6,1.1-.2.4-.3.7-.4,1.1l.6.5,4.6-5.4-.6-.5c-.3.1-.6.3-.9.5-.3.2-.6.4-1,.6l-5.6-4.8,5.8-6.7,5.6,4.8c-.2.3-.4.7-.5,1-.1.3-.3.7-.3,1l.6.5,4.6-5.4-.6-.5c-.7.3-1.4.7-2,1.3l-12.6-10.9c.4-.7.7-1.4,1-2.2l-.6-.5-4.6,5.4.6.5c.3-.1.6-.3,1-.5.3-.2.6-.4.9-.6l6,5.1-5.8,6.7-6-5.1c.4-.7.7-1.3.9-2l-.6-.5-4.6,5.4.6.5c.3-.1.7-.3,1-.6Z"/>
        <path class="cls-4" d="M41.6,72.3c1.5-.4,3-.8,4.5-1.1,1.5-.3,3-.6,4.5-.8-.1,1.3,0,2.5.6,3.5.5,1,1.4,1.8,2.7,2.3.9.4,1.7.6,2.5.5.8,0,1.5-.2,2.1-.6.6-.4,1.2-.9,1.7-1.5.5-.7.9-1.4,1.3-2.3.3-.8.6-1.6.9-2.4.3-.9.6-1.6.9-2.3l1-2.3-.8-.3c-.2.2-.5.5-.7.8-.3.3-.5.7-.8,1.1l-15.4-6.5c0-.4.1-.8.2-1.1,0-.4,0-.8,0-1.3l-.8-.3-2.9,6.8.8.3c.3-.3.6-.6.8-.9s.5-.7.8-1l6.7,2.8-1,2.4c-.8,0-1.6,0-2.3,0-.7,0-1.5.1-2.2.2s-1.5.2-2.2.4c-.7.2-1.5.3-2.3.6l-1.1.7-1.3,3.2.6.3,1.3-1.1ZM52.6,68l.8-1.9,7.7,3.3c0,.2-.1.5-.2.8,0,.3-.2.6-.4,1-.5,1.2-1.2,2-2.1,2.5-.9.5-2,.5-3.3,0-1.2-.5-2.1-1.3-2.5-2.3-.5-1-.4-2.1,0-3.3Z"/>
        <path class="cls-4" d="M41.3,93.4v-.7c0,0-3.1-1.8-3.1-1.8l.8-6.4,7.8,1-.6,4.6-2.3.8v.7c1.8.3,3.7.6,5.6.7v-.7c0,0-1.8-1.3-1.8-1.3l.6-4.6,7.4.9-.7,6.1-3.2.8v.7c.7.2,1.4.3,2.2.5.7.1,1.5.3,2.2.4l1.6-13.2h-.8c-.2.3-.4.6-.5,1-.2.4-.3.7-.4,1.1l-16.6-2c0-.9-.2-1.7-.4-2.4h-.8c0,0-1.7,13.7-1.7,13.7.8.1,1.6.2,2.4.3.8,0,1.6,0,2.4,0Z"/>
        <path class="cls-4" d="M57.1,112.5c.2.3.4.6.6.9l.8-.2-1.6-7-.8.2c0,.4-.1.7-.1,1.2,0,.4,0,.8,0,1.2l-15.7,3.5c-1,.2-1.8.4-2.4.4-.7,0-1.3,0-1.8,0-.5,0-.9-.2-1.3-.3-.4-.2-.7-.4-1-.6l-.3.4c.2.4.4.8.8,1.2.3.4.8.8,1.4,1.1s1.3.5,2.2.6c.9.1,2,0,3.3-.3l15.4-3.5c.2.3.3.7.5,1Z"/>
        <path class="cls-4" d="M64.1,130.3c.2.3.5.6.8.8.3.3.6.5,1,.7l.7-.4-2.7-5.4-.7.4c0,.3,0,.7,0,1.1,0,.4,0,.8.1,1.3l-10,5c-1.7.8-3.1,1.1-4.2.7-1.1-.4-2-1.2-2.6-2.6-.3-.7-.6-1.3-.7-2-.1-.6,0-1.2,0-1.8.2-.5.5-1.1,1-1.6.5-.5,1.2-1,2.1-1.4l10.3-5.1c.2.3.5.6.8.8.3.3.5.5.8.8l.7-.4-3.2-6.4-.7.4c0,.8.2,1.6.4,2.4l-10.7,5.3c-2,1-3.1,2.3-3.5,3.8-.4,1.6,0,3.4,1,5.5.4.9,1,1.6,1.6,2.3.6.6,1.3,1,2,1.3.8.3,1.6.3,2.5.2.9,0,1.9-.4,3-.9l10.1-5Z"/>
        <path class="cls-4" d="M67.6,145.9h0c.5.3,1.1.5,1.6.7s1.1.2,1.6,0c.5,0,1-.2,1.5-.4.5-.2.9-.5,1.2-.8.7-.7,1.2-1.4,1.3-2.1.2-.7.2-1.4,0-2.1-.2-.7-.5-1.4-.9-2-.4-.7-.9-1.2-1.4-1.8-.4-.4-.7-.7-1-1-.3-.3-.6-.6-.8-.8-.3-.2-.5-.5-.7-.7s-.5-.5-.7-.7l-2-2.2-.6.6c.1.4.3.8.5,1.1.2.4.4.7.6,1l-12.2,11.4c-.6-.5-1.3-.9-2.1-1.2l-.6.6,1.8,2c.5.6,1,1.2,1.6,1.8.5.6,1,1.2,1.5,1.7.6.7,1.4,1.3,2.1,1.8.8.5,1.6.9,2.4,1.1.8.2,1.7.2,2.5,0,.8-.2,1.6-.6,2.4-1.3.6-.5,1-1.1,1.2-1.7.2-.6.3-1.2.3-1.7,0-.6-.1-1.1-.3-1.7-.2-.6-.5-1.1-.8-1.5ZM66.3,149.1c-.2.6-.5,1.1-1.1,1.6-.4.4-.9.7-1.5.9-.5.2-1.1.2-1.6.2-.6,0-1.1-.2-1.7-.5s-1.1-.7-1.5-1.2c-.5-.6-.9-1-1.1-1.3-.2-.3-.4-.6-.5-.8l5.7-5.3,1.4,1.5c.5.5.9,1,1.3,1.6.4.5.6,1.1.7,1.7.1.6.1,1.1,0,1.7ZM66.6,144.2c-.2-.2-.5-.4-.8-.7-.3-.3-.6-.6-.8-.8l-1-1,5.5-5.2c.2.2.5.4.8.7.3.3.6.6,1,1.1.8.9,1.3,1.8,1.4,2.8,0,1-.4,1.9-1.3,2.7-.7.6-1.4.9-2.3,1-.9,0-1.7-.1-2.5-.6Z"/>
        <path class="cls-4" d="M74,162.5l9.3-13.8c.4.1.7.3,1.1.4.4.1.8.2,1.1.3l.5-.7-6-4-.5.7c.2.3.5.7.7,1,.2.3.5.6.8.9l-9.3,13.8c-.7-.3-1.4-.6-2.2-.7l-.5.7,6,4,.5-.7c-.2-.3-.4-.6-.7-.9s-.5-.6-.8-.9Z"/>
        <path class="cls-4" d="M91.9,171.3l-6-2.4,6.2-15.5c.4.1.9.2,1.4.3s.9,0,1.4,0l.3-.8-7.2-2.8-.3.8c.2.3.5.5.8.8.3.3.7.5,1,.7l-6.2,15.5c-.3,0-.7-.1-1.1-.2-.4,0-.8,0-1.3,0l-.3.8,13.1,5.2c.2-.4.4-.8.5-1.3.2-.5.4-1,.6-1.5.2-.5.3-1,.5-1.5.1-.5.3-.9.4-1.3l-.7-.3-3.2,3.6Z"/>
        <path class="cls-4" d="M113.2,153.3c-.3.2-.5.5-.5,1,0,.4,0,.8.4,1,.3.3.6.4,1.1.4.5,0,.9,0,1.2-.2.3-.2.5-.5.5-.9,0-.4,0-.8-.4-1.1-.3-.3-.6-.4-1.1-.4-.4,0-.8,0-1.2.2Z"/>
        <path class="cls-4" d="M107,152.7c-.3.2-.5.5-.5,1,0,.4,0,.8.4,1s.6.4,1.1.4c.4,0,.8,0,1.2-.2.3-.2.5-.5.5-.9,0-.4,0-.8-.4-1.1-.3-.3-.6-.4-1.1-.4-.5,0-.9,0-1.2.2Z"/>
        <path class="cls-4" d="M116.6,175.4l-5.3-19.1h-.8c0,0-8.9,17.7-8.9,17.7-.7,0-1.4.2-2.1.5v.8c0,0,6.1.6,6.1.6v-.8c-.7-.4-1.5-.7-2.3-.9l2.3-4.9,6.7.6,1.4,5.3c-.4,0-.8,0-1.2.2-.4,0-.8.2-1.2.3v.8c0,0,7.1.7,7.1.7v-.8c-.2-.2-.5-.4-.9-.5-.4-.1-.7-.2-1.1-.4ZM106.4,167.8l2.7-5.7.9-2.4h0s.3,2.5.3,2.5l1.6,6.1-5.6-.5Z"/>
        <path class="cls-4" d="M136.5,155.9c.3-.2.7-.4,1-.6.3-.2.6-.5.9-.8l-.2-.8-5.9,1.2.2.8c.3.1.7.2,1.1.3.4,0,.8.1,1.3.2l2.3,10.9c.4,1.8.3,3.2-.4,4.2-.6,1-1.7,1.6-3.1,1.9-.8.2-1.4.2-2.1.2s-1.2-.2-1.7-.5-.9-.8-1.3-1.4c-.3-.6-.6-1.4-.8-2.4l-2.4-11.2c.3-.2.7-.3,1-.5.3-.2.6-.4,1-.6l-.2-.8-7,1.5.2.8c.8.2,1.6.3,2.4.2l2.5,11.7c.5,2.1,1.4,3.6,2.8,4.4,1.4.8,3.3.9,5.6.4,1-.2,1.8-.5,2.6-1s1.3-1,1.8-1.7c.4-.7.7-1.5.9-2.4.1-.9,0-2-.2-3.1l-2.3-11Z"/>
        <path class="cls-4" d="M167,158.2c-.3,0-.7.2-1.1.4l-8.8-14.2c.3-.3.5-.5.8-.8.2-.3.5-.6.7-.9l-.4-.7-4.3,2.7,2.4,13.5.7,3h0s-2.3-1.9-2.3-1.9l-10.9-8.4-4.9,3,.4.7c.4,0,.8-.2,1.2-.3s.8-.2,1.1-.4l8.8,14.2c-.3.3-.6.6-.8.9-.3.3-.5.6-.7.9l.4.7,5-3.1-.4-.7c-.4,0-.8.1-1.1.2-.4,0-.7.2-1.1.3l-6.7-10.8-1.9-3h.2c0-.1,2.6,2.1,2.6,2.1l12.3,9.4.6-.4-2.7-15.3-.8-3h.2c0-.1,1.6,2.7,1.6,2.7l6.7,10.8c-.3.3-.6.6-.8.9s-.5.6-.8.9l.4.7,5.9-3.6-.4-.7c-.4,0-.7.1-1,.2Z"/>
        <path class="cls-4" d="M184.6,133.6c-.4-.6-1-1.2-1.7-1.6-.9-.6-1.7-.8-2.5-.8s-1.7.2-2.5.5c-.8.3-1.6.7-2.3,1.2-.8.5-1.5.9-2.2,1.2-.7.4-1.4.6-2.1.7-.7.1-1.4,0-2-.5-.8-.5-1.3-1.2-1.4-2-.1-.8,0-1.6.6-2.4.3-.5.7-.9,1-1.3.3-.4.7-.7,1-.9l3.8,1.1.4-.6c-.2-.2-.5-.5-.8-.8-.3-.3-.6-.6-1-.9-.3-.3-.7-.6-1-.9-.3-.3-.6-.5-.9-.7-.5.3-1.1.8-1.8,1.5-.7.7-1.3,1.5-1.9,2.5-.5.7-.8,1.5-1,2.2-.2.7-.2,1.4-.2,2.1,0,.7.3,1.3.7,1.9.4.6.9,1.1,1.5,1.5.9.6,1.8.9,2.7.9.9,0,1.7-.1,2.5-.4.8-.3,1.6-.7,2.3-1.2.8-.5,1.5-.9,2.2-1.3.7-.4,1.4-.6,2.1-.7.7-.1,1.3,0,2,.4.5.3.8.7,1.1,1.1.2.4.4.9.4,1.4,0,.5,0,1-.2,1.5-.2.5-.4,1-.7,1.5-.4.6-.7,1-1.1,1.2-.3.2-.6.4-1,.4l-4.1-1.3-.4.6c.2.2.5.5.8.8s.7.6,1.1.9c.4.3.7.6,1.1.9.4.3.7.5.9.7.5-.2,1.1-.6,1.8-1.2.7-.6,1.4-1.4,2.1-2.4.6-.9,1-1.8,1.2-2.6.2-.9.3-1.7.2-2.4,0-.8-.3-1.4-.8-2.1Z"/>
        <path class="cls-4" d="M191.5,122.1c-.2.3-.5.7-.7,1l-15.6-5.9c0-.4.1-.8.1-1.2,0-.4,0-.8,0-1.2l-.8-.3-2.6,6.7.8.3c.3-.3.5-.6.8-.9.2-.3.5-.6.7-.9l15.6,5.9c-.2.8-.2,1.5-.2,2.3l.8.3,2.6-6.7-.8-.3c-.3.2-.5.5-.7.9Z"/>
        <path class="cls-4" d="M194.8,108.5c-.2.4-.3.9-.5,1.4l-6.2-.9c0,0,0-.2.1-.4,0-.2,0-.4.1-.6,0-.2,0-.4.1-.6,0-.2,0-.3,0-.4.1-1,.1-1.9,0-2.9-.1-.9-.4-1.8-.8-2.6-.4-.8-1-1.4-1.7-2s-1.6-.9-2.7-1c-1.2-.2-2.1,0-3,.2-.8.3-1.5.8-2.1,1.4-.6.6-1,1.3-1.3,2.2-.3.8-.5,1.7-.7,2.6-.1.8-.2,1.6-.2,2.5,0,.9-.1,1.7-.2,2.4l-.3,2.5h.8c.2-.2.4-.6.6-.9.2-.4.3-.7.5-1.2l16.5,2.3c0,.4,0,.8,0,1.2,0,.4.1.8.3,1.2h.8c0,.1,1.1-7.5,1.1-7.5h-.8c-.2.3-.4.7-.6,1.1ZM187.1,106.9c0,.1,0,.3,0,.4,0,.2,0,.4-.1.6,0,.2,0,.4-.1.6,0,.2,0,.3-.1.4l-9-1.3c0-.3,0-.5,0-.8,0-.3,0-.6.1-1.1.2-1.5.8-2.7,1.6-3.4.9-.8,2.1-1,3.6-.8.8.1,1.5.3,2.1.7.6.3,1,.8,1.3,1.3.3.5.5,1,.6,1.6,0,.6,0,1.2,0,1.9Z"/>
        <path class="cls-4" d="M179,96c.5,0,1-.2,1.4-.3.5,0,1-.2,1.4-.3.5-.1.9-.2,1.2-.3v-.7c0,0-4.3-.9-4.3-.9l-.6-4.3,16.6-2.3c.1.5.3.9.5,1.3.2.4.4.8.6,1.2h.8c0-.1-1.1-7.9-1.1-7.9h-.8c-.1.5-.2.9-.2,1.4s0,.9,0,1.4l-16.6,2.3-.6-4.2,3.8-2v-.7c-.5,0-.9,0-1.4,0s-1,0-1.5.1c-.5,0-1,0-1.4.1-.5,0-.9,0-1.3.1l2.2,16.2c.4,0,.8-.1,1.3-.2Z"/>
        <circle class="cls-4" cx="116.8" cy="97.1" r="49"/>
        <g class="cls-5">
          <path class="cls-2" d="M128.4,89.3c.2-2.5.6-4.5,1.1-6,.5-1.6,1.2-2.7,2.1-3.4.9-.7,2-1.1,3.4-1.1s2.7.4,3.7,1.3c.9.9,1.6,2.2,2.1,3.8.5,1.7.8,3.7,1,6.1.2,2.4.3,5.1.3,8.1s-.1,6.5-.3,8.9c-.2,2.4-.6,4.4-1.2,6-.6,1.6-1.3,2.7-2.3,3.4-1,.7-2.2,1.1-3.7,1.1s-2.3-.4-3.1-1.3c-.8-.9-1.5-2.2-2-3.8-.5-1.7-.9-3.7-1-6.1-.2-2.4-.3-5.1-.3-8.1s.1-6.4.3-8.9M119.6,107.9c.7,2.8,1.7,5.2,3.1,7.2,1.4,2,3.1,3.5,5.1,4.5,2,1,4.3,1.6,6.9,1.6s4.7-.5,6.8-1.5c2.1-1,3.9-2.4,5.4-4.4,1.5-1.9,2.7-4.3,3.5-7.2.8-2.9,1.2-6.2,1.2-10,0-7.7-1.5-13.4-4.5-17.3-3-3.8-7-5.8-12.1-5.8s-4.6.5-6.6,1.5c-2,1-3.8,2.4-5.2,4.4-1.5,1.9-2.6,4.3-3.4,7.2-.8,2.9-1.2,6.2-1.2,10s.3,6.9,1,9.7M92.8,80.2c.7-.2,1.4-.4,1.9-.4.6,0,1.2-.1,1.9-.1,2.3,0,4.1.7,5.3,2.2,1.2,1.5,1.9,3.4,1.9,5.7s-.3,3.6-1,5.5c-.7,1.9-1.5,3.7-2.6,5.5-1.1,1.8-2.4,3.6-3.8,5.3-1.4,1.7-2.8,3.4-4.3,4.9-1.4,1.5-2.9,3-4.3,4.3-1.4,1.3-2.6,2.4-3.8,3.4v4.1h29.1c0-.8,0-1.8-.1-3,0-1.2-.2-2.6-.3-3.9-.1-1.4-.3-2.7-.4-4.1-.1-1.4-.3-2.5-.4-3.6h-2.2l-3.1,7.1h-10.9l-3.9.4v-.3l3.3-2.2c1.6-1.4,3.4-3,5.4-4.7,2-1.7,3.9-3.6,5.6-5.6,1.7-2,3.2-4.2,4.4-6.5,1.2-2.3,1.8-4.8,1.8-7.3s-.3-3.1-.8-4.5c-.5-1.4-1.4-2.6-2.5-3.7-1.1-1.1-2.5-1.9-4.2-2.5-1.7-.6-3.7-.9-6-.9-3.3,0-6.1.5-8.4,1.4-2.3.9-4.2,2-5.7,3.3.2.8.4,1.6.7,2.5.3.9.6,1.8,1,2.8.3.9.7,1.8,1,2.7.3.8.6,1.6.9,2.2h2.2l2.4-9.9Z"/>
        </g>
      </g>
    </g>
  </g>
</svg>