<svg id="Ebene_1" xmlns="http://www.w3.org/2000/svg" viewBox="0 0 400 345"><style>.st0{fill:#fff}.st1{fill:#ff7a00}</style><path class="st0" d="M0 81.3L314.2 345h3.1L0 78.7zM0 185.8L189.8 345h3.1L0 183.2zM0 60.4L339.1 345h3.1L0 57.8zM0 123.1L264.4 345h3.2L0 120.5zM0 164.9L214.7 345h3.1L0 162.3zM0 144l239.5 201h3.2L0 141.4zM0 206.7L164.9 345h3.1L0 204zM0 102.2L289.3 345h3.1L0 99.6zM0 18.7L388.9 345h3.1L0 16.1zM0 227.5L140 345h3.1L0 224.9zM0 39.6L364 345h3.1L0 37z"/><path class="st1" d="M0 162.3L217.8 345h21.7L0 144zM0 141.4L242.7 345h21.7L0 123.1zM0 183.2L192.9 345h21.8L0 164.9zM0 204l168 141h21.8L0 185.8zM0 224.9L143.1 345h21.8L0 206.7zM0 120.5L267.6 345h21.7L0 102.2zM0 57.8L342.2 345H364L0 39.6zM0 0v16.1L392 345h8V0zM0 345h140L0 227.5zM0 37l367.1 308h21.8L0 18.7zM0 99.6L292.4 345h21.8L0 81.3zM0 78.7L317.3 345h21.8L0 60.4z"/><path class="st1" d="M96.7 37.7l-.9.6-.9.7.2.8 6.9-2.1-.3-.8h-2.4l-4.8-15.3c-.3-.8-.5-1.6-.6-2.4-.1-.6-.2-1.2-.1-1.8 0-.4.1-.9.2-1.3s.3-.7.5-1l-.4-.3c-.4.2-.9.5-1.2.9-.4.4-.7.9-1 1.5-.3.7-.4 1.5-.4 2.3-.1 1.1.1 2.2.5 3.2l4.7 15zM106.8 152.7c-.3.2-.5.6-.5 1-.1.4 0 .7.3 1 .3.3.7.4 1.1.4.4.1.8 0 1.2-.2.3-.2.5-.5.5-.9.1-.4 0-.8-.3-1.1-.3-.2-.7-.4-1.1-.4-.4-.1-.8 0-1.2.2zM184.5 133.6c-.4-.7-1-1.2-1.7-1.6-.8-.5-1.7-.8-2.6-.8-.8 0-1.6.1-2.4.4l-2.4 1.2c-.7.5-1.4.9-2.2 1.2-.6.4-1.4.6-2.1.7-1.6.2-3.1-.8-3.4-2.4-.1-.8.1-1.7.6-2.4.3-.5.6-.9 1-1.3.3-.4.6-.7 1-.9l3.8 1.1.4-.6-.8-.8-1-.9-1-.8-.9-.7c-.7.5-1.3 1-1.8 1.6-.7.7-1.3 1.5-1.9 2.4-.4.7-.8 1.4-1 2.2-.2.7-.2 1.4-.2 2.1.1.7.3 1.3.7 1.9.4.6 1 1.1 1.6 1.5.8.5 1.7.9 2.6.9 1.7 0 3.4-.6 4.8-1.6l2.2-1.3 2.1-.7c.7-.1 1.4.1 1.9.5.5.3.8.6 1.1 1.1.3.4.4.9.5 1.4 0 .5 0 1-.2 1.5s-.4 1-.7 1.5c-.3.5-.7.9-1.1 1.3l-.9.4-4.1-1.3-.4.6.8.8 1.1 1 1.1.9.9.7c.6-.3 1.2-.7 1.8-1.2.8-.7 1.5-1.6 2.1-2.5.6-.8 1-1.7 1.2-2.6.3-.8.3-1.6.2-2.4-.1-.7-.3-1.5-.7-2.1zM191.3 122.1l-.7 1-15.6-5.9c.1-.4.1-.8.1-1.2.1-.4.1-.8.1-1.2l-.8-.2-2.6 6.7.8.3.8-.9.7-1 15.5 6c-.1.8-.2 1.5-.1 2.3l.7.3 2.6-6.7-.8-.3-.7.8zM178.8 96l1.5-.3 1.4-.3 1.3-.3v-.7l-4.2-.9-.6-4.3 16.6-2.2.4 1.3.6 1.2.8-.2-1.2-7.8h-.8c-.1.4-.2.9-.2 1.3s-.1.9-.1 1.4l-16.6 2.3-.6-4.3 3.8-2v-.7h-2.8l-1.5.2h-1.2l2.2 16.2 1.2.1z"/></svg>